<?xml version="1.0" encoding='UTF-8' standalone='no' ?>
<!DOCTYPE score-partwise PUBLIC "-//Recordare//DTD MusicXML 3.0 Partwise//EN" "http://www.musicxml.org/dtds/partwise.dtd">
<score-partwise version="3.0">
 <work>
  <work-title>[T151_Deb-w2p19m5-12]</work-title>
 </work>
 <identification>
  <creator type="composer">(Achille-) Claude Debussy</creator>
  <encoding>
   <encoding-date>2021-06-10</encoding-date>
   <encoder>rafap</encoder>
   <software>Sibelius 21.2.0</software>
   <software>Direct export, not from Dolet</software>
   <encoding-description>Sibelius / MusicXML 3.0</encoding-description>
   <supports element="print" type="yes" value="yes" attribute="new-system" />
   <supports element="print" type="yes" value="yes" attribute="new-page" />
   <supports element="accidental" type="yes" />
   <supports element="beam" type="yes" />
   <supports element="stem" type="yes" />
  </encoding>
 </identification>
 <defaults>
  <scaling>
   <millimeters>215.9</millimeters>
   <tenths>1570</tenths>
  </scaling>
  <page-layout>
   <page-height>2031</page-height>
   <page-width>1570</page-width>
   <page-margins type="both">
    <left-margin>109</left-margin>
    <right-margin>109</right-margin>
    <top-margin>109</top-margin>
    <bottom-margin>109</bottom-margin>
   </page-margins>
  </page-layout>
  <system-layout>
   <system-margins>
    <left-margin>95</left-margin>
    <right-margin>0</right-margin>
   </system-margins>
   <system-distance>55</system-distance>
  </system-layout>
  <appearance>
   <line-width type="stem">0.9375</line-width>
   <line-width type="beam">4.0625</line-width>
   <line-width type="staff">0.9375</line-width>
   <line-width type="light barline">1.5625</line-width>
   <line-width type="heavy barline">5</line-width>
   <line-width type="leger">1.5625</line-width>
   <line-width type="ending">1.5625</line-width>
   <line-width type="wedge">1.25</line-width>
   <line-width type="enclosure">0.9375</line-width>
   <line-width type="tuplet bracket">1.25</line-width>
   <line-width type="bracket">5</line-width>
   <line-width type="dashes">1.5625</line-width>
   <line-width type="extend">0.9375</line-width>
   <line-width type="octave shift">1.5625</line-width>
   <line-width type="pedal">1.5625</line-width>
   <line-width type="slur middle">0.9375</line-width>
   <line-width type="slur tip">0.625</line-width>
   <line-width type="tie middle">0.9375</line-width>
   <line-width type="tie tip">0.625</line-width>
   <note-size type="cue">75</note-size>
   <note-size type="grace">60</note-size>
  </appearance>
  <music-font font-family="Opus Std" font-size="15.5906" />
  <word-font font-family="Didot" font-size="9.3787" />
  <lyric-font font-family="Didot" font-size="9.0133" />
  <lyric-language xml:lang="en" />
 </defaults>
 <credit page="1">
  <credit-words default-x="785" default-y="155" font-family="Didot" font-style="normal" font-size="17.2958" font-weight="normal" justify="center" valign="middle">[T151_Deb-w2p19m5-12]</credit-words>
 </credit>
 <credit page="1">
  <credit-words default-x="1461" default-y="84" font-family="Didot" font-style="normal" font-size="8.6479" font-weight="normal" justify="right" valign="middle">(Achille-) Claude Debussy</credit-words>
 </credit>
 <part-list>
  <score-part id="P1">
   <part-name>Soprano Solo</part-name>
   <part-name-display>
    <display-text>Soprano Solo</display-text>
   </part-name-display>
   <part-abbreviation>S. Solo</part-abbreviation>
   <part-abbreviation-display>
    <display-text>S. Solo</display-text>
   </part-abbreviation-display>
   <score-instrument id="P1-I1">
    <instrument-name>Solo Soprano</instrument-name>
    <virtual-instrument>
     <virtual-library>General MIDI</virtual-library>
     <virtual-name>Solo Soprano</virtual-name>
    </virtual-instrument>
   </score-instrument>
  </score-part>
  <part-group type="start" number="1">
   <group-symbol>brace</group-symbol>
  </part-group>
  <score-part id="P2">
   <part-name>Piano</part-name>
   <part-name-display>
    <display-text>Piano</display-text>
   </part-name-display>
   <part-abbreviation>Pno.</part-abbreviation>
   <part-abbreviation-display>
    <display-text>Pno.</display-text>
   </part-abbreviation-display>
   <score-instrument id="P2-I1">
    <instrument-name>Piano (2)</instrument-name>
    <instrument-sound>keyboard.piano.grand</instrument-sound>
    <solo />
    <virtual-instrument>
     <virtual-library>General MIDI</virtual-library>
     <virtual-name>Acoustic Piano</virtual-name>
    </virtual-instrument>
   </score-instrument>
  </score-part>
  <part-group type="stop" number="1" />
 </part-list>
 <part id="P1">
  <!--============== Part: P1, Measure: 5 ==============-->
  <measure number="5" width="392">
   <print new-page="yes">
    <system-layout>
     <system-margins>
      <left-margin>169</left-margin>
      <right-margin>0</right-margin>
     </system-margins>
     <top-system-distance>277</top-system-distance>
    </system-layout>
   </print>
   <attributes>
    <divisions>256</divisions>
    <key color="#000000">
     <fifths>-6</fifths>
     <mode>major</mode>
    </key>
    <time color="#000000">
     <beats>6</beats>
     <beat-type>8</beat-type>
    </time>
    <staves>1</staves>
    <clef number="1" color="#000000">
     <sign>G</sign>
     <line>2</line>
    </clef>
    <staff-details number="1" print-object="yes" />
   </attributes>
   <direction>
    <direction-type>
     <dynamics default-x="153" default-y="33" color="#000000" font-family="Opus Text Std" font-style="normal" font-size="9.3787" font-weight="normal">
      <p />
     </dynamics>
    </direction-type>
    <voice>1</voice>
    <staff>1</staff>
   </direction>
   <direction>
    <direction-type>
     <metronome default-y="55" color="#000000" font-family="Opus Text Std" font-style="normal" font-size="9.3787" font-weight="normal">
      <beat-unit>quarter</beat-unit>
      <beat-unit-dot />
      <per-minute>80</per-minute>
     </metronome>
    </direction-type>
    <voice>1</voice>
    <staff>1</staff>
   </direction>
   <note default-x="147">
    <rest />
    <duration>192</duration>
    <instrument id="P1-I1" />
    <voice>1</voice>
    <type>eighth</type>
    <time-modification>
     <actual-notes>2</actual-notes>
     <normal-notes>3</normal-notes>
     <normal-type>eighth</normal-type>
    </time-modification>
    <staff>1</staff>
    <notations>
     <tuplet type="start" bracket="yes" number="1" default-y="17" placement="above" />
    </notations>
   </note>
   <note color="#000000" default-x="208" default-y="10">
    <pitch>
     <step>A</step>
     <alter>-1</alter>
     <octave>4</octave>
    </pitch>
    <duration>192</duration>
    <instrument id="P1-I1" />
    <voice>1</voice>
    <type>eighth</type>
    <time-modification>
     <actual-notes>2</actual-notes>
     <normal-notes>3</normal-notes>
     <normal-type>eighth</normal-type>
    </time-modification>
    <stem>up</stem>
    <staff>1</staff>
    <notations>
     <tuplet type="stop" bracket="yes" number="1" default-y="17" placement="above" />
    </notations>
    <lyric default-y="-80" number="part1verse1" color="#000000">
     <syllabic>begin</syllabic>
     <text>Voi</text>
    </lyric>
    <lyric default-y="-105" number="part1verse2" color="#000000">
     <syllabic>begin</syllabic>
     <text>Ac</text>
    </lyric>
   </note>
   <note color="#000000" default-x="269" default-y="-55">
    <pitch>
     <step>B</step>
     <alter>-1</alter>
     <octave>4</octave>
    </pitch>
    <duration>192</duration>
    <instrument id="P1-I1" />
    <voice>1</voice>
    <type>eighth</type>
    <time-modification>
     <actual-notes>2</actual-notes>
     <normal-notes>3</normal-notes>
     <normal-type>eighth</normal-type>
    </time-modification>
    <stem>down</stem>
    <staff>1</staff>
    <notations>
     <tuplet type="start" bracket="yes" number="1" default-y="13" placement="above" />
     <slur color="#000000" type="start" orientation="over" />
    </notations>
    <lyric default-y="-80" number="part1verse1" color="#000000">
     <syllabic>end</syllabic>
     <text>ci</text>
    </lyric>
    <lyric default-y="-105" number="part1verse2" color="#000000">
     <syllabic>end</syllabic>
     <text>cept</text>
    </lyric>
   </note>
   <note color="#000000" default-x="331" default-y="-50">
    <pitch>
     <step>C</step>
     <alter>-1</alter>
     <octave>5</octave>
    </pitch>
    <duration>192</duration>
    <instrument id="P1-I1" />
    <voice>1</voice>
    <type>eighth</type>
    <time-modification>
     <actual-notes>2</actual-notes>
     <normal-notes>3</normal-notes>
     <normal-type>eighth</normal-type>
    </time-modification>
    <stem>down</stem>
    <staff>1</staff>
    <notations>
     <tuplet type="stop" bracket="yes" number="1" default-y="13" placement="above" />
     <slur color="#000000" type="stop" orientation="over" />
    </notations>
    <lyric default-y="-80" number="part1verse1" color="#000000">
     <syllabic>single</syllabic>
     <text>des</text>
    </lyric>
    <lyric default-y="-105" number="part1verse2" color="#000000">
     <syllabic>single</syllabic>
     <text>these</text>
    </lyric>
   </note>
  </measure>
  <!--============== Part: P1, Measure: 6 ==============-->
  <measure number="6" width="273">
   <note color="#000000" default-x="17" default-y="-50">
    <pitch>
     <step>C</step>
     <alter>-1</alter>
     <octave>5</octave>
    </pitch>
    <duration>192</duration>
    <instrument id="P1-I1" />
    <voice>1</voice>
    <type>eighth</type>
    <time-modification>
     <actual-notes>2</actual-notes>
     <normal-notes>3</normal-notes>
     <normal-type>eighth</normal-type>
    </time-modification>
    <stem>down</stem>
    <staff>1</staff>
    <notations>
     <tuplet type="start" bracket="yes" number="1" default-y="18" placement="above" />
     <slur color="#000000" type="start" orientation="over" />
    </notations>
    <lyric default-y="-80" number="part1verse1" color="#000000">
     <syllabic>single</syllabic>
     <text>fruits,</text>
    </lyric>
    <lyric default-y="-105" number="part1verse2" color="#000000">
     <syllabic>begin</syllabic>
     <text>rud</text>
    </lyric>
   </note>
   <note color="#000000" default-x="80" default-y="-40">
    <pitch>
     <step>E</step>
     <alter>-1</alter>
     <octave>5</octave>
    </pitch>
    <duration>192</duration>
    <instrument id="P1-I1" />
    <voice>1</voice>
    <type>eighth</type>
    <time-modification>
     <actual-notes>2</actual-notes>
     <normal-notes>3</normal-notes>
     <normal-type>eighth</normal-type>
    </time-modification>
    <stem>down</stem>
    <staff>1</staff>
    <notations>
     <tuplet type="stop" bracket="yes" number="1" default-y="18" placement="above" />
     <slur color="#000000" type="stop" orientation="over" />
    </notations>
    <lyric default-y="-80" number="part1verse1" color="#000000">
     <syllabic>single</syllabic>
     <text>des</text>
    </lyric>
    <lyric default-y="-105" number="part1verse2" color="#000000">
     <syllabic>end</syllabic>
     <text>dy</text>
    </lyric>
   </note>
   <note color="#000000" default-x="152" default-y="-40">
    <pitch>
     <step>E</step>
     <alter>-1</alter>
     <octave>5</octave>
    </pitch>
    <duration>256</duration>
    <instrument id="P1-I1" />
    <voice>1</voice>
    <type>quarter</type>
    <stem>down</stem>
    <staff>1</staff>
    <lyric default-y="-80" number="part1verse1" color="#000000">
     <syllabic>single</syllabic>
     <text>fleurs,</text>
    </lyric>
    <lyric default-y="-105" number="part1verse2" color="#000000">
     <syllabic>single</syllabic>
     <text>fruits,</text>
    </lyric>
   </note>
   <note color="#000000" default-x="233" default-y="-40">
    <pitch>
     <step>E</step>
     <alter>-1</alter>
     <octave>5</octave>
    </pitch>
    <duration>128</duration>
    <instrument id="P1-I1" />
    <voice>1</voice>
    <type>eighth</type>
    <stem>down</stem>
    <staff>1</staff>
    <notations>
     <slur color="#000000" type="start" orientation="over" />
    </notations>
    <lyric default-y="-80" number="part1verse1" color="#000000">
     <syllabic>single</syllabic>
     <text>des</text>
    </lyric>
    <lyric default-y="-105" number="part1verse2" color="#000000">
     <syllabic>single</syllabic>
     <text>this</text>
    </lyric>
   </note>
  </measure>
  <!--============== Part: P1, Measure: 7 ==============-->
  <measure number="7" width="256">
   <note color="#000000" default-x="15" default-y="-25">
    <pitch>
     <step>A</step>
     <alter>-1</alter>
     <octave>5</octave>
    </pitch>
    <duration>256</duration>
    <instrument id="P1-I1" />
    <voice>1</voice>
    <type>quarter</type>
    <stem>down</stem>
    <staff>1</staff>
    <lyric default-y="-80" number="part1verse1" color="#000000">
     <syllabic>begin</syllabic>
     <text>feuil</text>
    </lyric>
    <lyric default-y="-105" number="part1verse2" color="#000000">
     <syllabic>begin</syllabic>
     <text>fol</text>
    </lyric>
   </note>
   <note color="#000000" default-x="95" default-y="-40">
    <pitch>
     <step>E</step>
     <alter>-1</alter>
     <octave>5</octave>
    </pitch>
    <duration>128</duration>
    <instrument id="P1-I1" />
    <voice>1</voice>
    <type>eighth</type>
    <stem>down</stem>
    <staff>1</staff>
    <lyric default-y="-80" number="part1verse1" color="#000000">
     <syllabic>end</syllabic>
     <text>les</text>
    </lyric>
    <lyric default-y="-105" number="part1verse2" color="#000000">
     <syllabic>end</syllabic>
     <text>iage</text>
    </lyric>
   </note>
   <note color="#000000" default-x="135" default-y="-49">
    <pitch>
     <step>C</step>
     <alter>-1</alter>
     <octave>5</octave>
    </pitch>
    <duration>128</duration>
    <instrument id="P1-I1" />
    <voice>1</voice>
    <type>eighth</type>
    <stem>down</stem>
    <staff>1</staff>
    <beam number="1">begin</beam>
    <lyric default-y="-80" number="part1verse1" color="#000000">
     <syllabic>single</syllabic>
     <text>et</text>
     <extend />
    </lyric>
    <lyric default-y="-105" number="part1verse2" color="#000000">
     <syllabic>single</syllabic>
     <text>from</text>
     <extend />
    </lyric>
   </note>
   <note color="#000000" default-x="176" default-y="-49">
    <pitch>
     <step>B</step>
     <alter>-1</alter>
     <octave>4</octave>
    </pitch>
    <duration>128</duration>
    <instrument id="P1-I1" />
    <voice>1</voice>
    <type>eighth</type>
    <stem>down</stem>
    <staff>1</staff>
    <beam number="1">end</beam>
   </note>
   <note color="#000000" default-x="216" default-y="-50">
    <pitch>
     <step>C</step>
     <alter>-1</alter>
     <octave>5</octave>
    </pitch>
    <duration>128</duration>
    <instrument id="P1-I1" />
    <voice>1</voice>
    <type>eighth</type>
    <stem>down</stem>
    <staff>1</staff>
    <lyric default-y="-80" number="part1verse1" color="#000000">
     <syllabic>single</syllabic>
     <text>des</text>
    </lyric>
    <lyric default-y="-105" number="part1verse2" color="#000000">
     <syllabic>single</syllabic>
     <text>the</text>
    </lyric>
   </note>
  </measure>
  <!--============== Part: P1, Measure: 8 ==============-->
  <measure number="8" width="259">
   <note color="#000000" default-x="17" default-y="-55">
    <pitch>
     <step>B</step>
     <alter>-1</alter>
     <octave>4</octave>
    </pitch>
    <duration>384</duration>
    <instrument id="P1-I1" />
    <voice>1</voice>
    <type>quarter</type>
    <dot />
    <stem>down</stem>
    <staff>1</staff>
    <lyric default-y="-80" number="part1verse1" color="#000000">
     <syllabic>begin</syllabic>
     <text>bran</text>
    </lyric>
    <lyric default-y="-105" number="part1verse2" color="#000000">
     <syllabic>begin</syllabic>
     <text>bow</text>
    </lyric>
   </note>
   <note color="#000000" default-x="138" default-y="10">
    <pitch>
     <step>A</step>
     <alter>-1</alter>
     <octave>4</octave>
    </pitch>
    <duration>256</duration>
    <instrument id="P1-I1" />
    <voice>1</voice>
    <type>quarter</type>
    <stem>up</stem>
    <staff>1</staff>
    <notations>
     <slur color="#000000" type="stop" orientation="over" />
    </notations>
    <lyric default-y="-80" number="part1verse1" color="#000000">
     <syllabic>end</syllabic>
     <text>ches</text>
    </lyric>
    <lyric default-y="-105" number="part1verse2" color="#000000">
     <syllabic>end</syllabic>
     <text>er,</text>
    </lyric>
   </note>
   <note default-x="219">
    <rest />
    <duration>128</duration>
    <instrument id="P1-I1" />
    <voice>1</voice>
    <type>eighth</type>
    <staff>1</staff>
   </note>
  </measure>
  <!--============== Part: P1, Measure: 9 ==============-->
  <measure number="9" width="379">
   <print new-system="yes">
    <system-layout>
     <system-margins>
      <left-margin>95</left-margin>
      <right-margin>0</right-margin>
     </system-margins>
     <system-distance>107</system-distance>
    </system-layout>
   </print>
   <attributes>
    <staff-details number="1" print-object="yes" />
   </attributes>
   <note default-x="130">
    <rest />
    <duration>192</duration>
    <instrument id="P1-I1" />
    <voice>1</voice>
    <type>eighth</type>
    <time-modification>
     <actual-notes>2</actual-notes>
     <normal-notes>3</normal-notes>
     <normal-type>eighth</normal-type>
    </time-modification>
    <staff>1</staff>
    <notations>
     <tuplet type="start" bracket="yes" number="1" default-y="17" placement="above" />
    </notations>
   </note>
   <direction>
    <direction-type>
     <dynamics default-x="193" default-y="33" color="#000000" font-family="Opus Text Std" font-style="normal" font-size="9.3787" font-weight="normal">
      <p />
     </dynamics>
    </direction-type>
    <voice>1</voice>
    <staff>1</staff>
   </direction>
   <note color="#000000" default-x="199" default-y="10">
    <pitch>
     <step>A</step>
     <alter>-1</alter>
     <octave>4</octave>
    </pitch>
    <duration>192</duration>
    <instrument id="P1-I1" />
    <voice>1</voice>
    <type>eighth</type>
    <time-modification>
     <actual-notes>2</actual-notes>
     <normal-notes>3</normal-notes>
     <normal-type>eighth</normal-type>
    </time-modification>
    <stem>up</stem>
    <staff>1</staff>
    <notations>
     <tuplet type="stop" bracket="yes" number="1" default-y="17" placement="above" />
     <articulations>
      <tenuto />
     </articulations>
    </notations>
    <lyric default-y="-80" number="part1verse1" color="#000000">
     <syllabic>single</syllabic>
     <text>Et</text>
    </lyric>
    <lyric default-y="-105" number="part1verse2" color="#000000">
     <syllabic>single</syllabic>
     <text>and</text>
    </lyric>
   </note>
   <note color="#000000" default-x="269" default-y="-50">
    <pitch>
     <step>C</step>
     <alter>-1</alter>
     <octave>5</octave>
    </pitch>
    <duration>192</duration>
    <instrument id="P1-I1" />
    <voice>1</voice>
    <type>eighth</type>
    <time-modification>
     <actual-notes>2</actual-notes>
     <normal-notes>3</normal-notes>
     <normal-type>eighth</normal-type>
    </time-modification>
    <stem>down</stem>
    <staff>1</staff>
    <notations>
     <tuplet type="start" bracket="yes" number="1" default-y="12" placement="above" />
     <articulations>
      <tenuto />
     </articulations>
    </notations>
    <lyric default-y="-80" number="part1verse1" color="#000000">
     <syllabic>single</syllabic>
     <text>puis</text>
    </lyric>
    <lyric default-y="-105" number="part1verse2" color="#000000">
     <syllabic>single</syllabic>
     <text>this</text>
    </lyric>
   </note>
   <note color="#000000" default-x="324" default-y="-40">
    <pitch>
     <step>E</step>
     <alter>-1</alter>
     <octave>5</octave>
    </pitch>
    <duration>192</duration>
    <instrument id="P1-I1" />
    <voice>1</voice>
    <type>eighth</type>
    <time-modification>
     <actual-notes>2</actual-notes>
     <normal-notes>3</normal-notes>
     <normal-type>eighth</normal-type>
    </time-modification>
    <stem>down</stem>
    <staff>1</staff>
    <notations>
     <tuplet type="stop" bracket="yes" number="1" default-y="12" placement="above" />
     <articulations>
      <tenuto />
     </articulations>
    </notations>
    <lyric default-y="-80" number="part1verse1" color="#000000">
     <syllabic>begin</syllabic>
     <text>voi</text>
    </lyric>
    <lyric default-y="-105" number="part1verse2" color="#000000">
     <syllabic>single</syllabic>
     <text>my</text>
    </lyric>
   </note>
  </measure>
  <!--============== Part: P1, Measure: 10 ==============-->
  <measure number="10" width="272">
   <note color="#000000" default-x="15" default-y="-55">
    <pitch>
     <step>B</step>
     <alter>-1</alter>
     <octave>4</octave>
    </pitch>
    <duration>192</duration>
    <instrument id="P1-I1" />
    <voice>1</voice>
    <type>eighth</type>
    <time-modification>
     <actual-notes>2</actual-notes>
     <normal-notes>3</normal-notes>
     <normal-type>eighth</normal-type>
    </time-modification>
    <stem>down</stem>
    <staff>1</staff>
    <notations>
     <tuplet type="start" bracket="yes" number="1" default-y="12" placement="above" />
     <articulations>
      <tenuto />
     </articulations>
    </notations>
    <lyric default-y="-80" number="part1verse1" color="#000000">
     <syllabic>end</syllabic>
     <text>ci</text>
    </lyric>
    <lyric default-y="-105" number="part1verse2" color="#000000">
     <syllabic>begin</syllabic>
     <text>lov</text>
    </lyric>
   </note>
   <note color="#000000" default-x="84" default-y="-45">
    <pitch>
     <step>D</step>
     <alter>-1</alter>
     <octave>5</octave>
    </pitch>
    <duration>192</duration>
    <instrument id="P1-I1" />
    <voice>1</voice>
    <type>eighth</type>
    <time-modification>
     <actual-notes>2</actual-notes>
     <normal-notes>3</normal-notes>
     <normal-type>eighth</normal-type>
    </time-modification>
    <stem>down</stem>
    <staff>1</staff>
    <notations>
     <tuplet type="stop" bracket="yes" number="1" default-y="12" placement="above" />
     <articulations>
      <tenuto />
     </articulations>
    </notations>
    <lyric default-y="-80" number="part1verse1" color="#000000">
     <syllabic>single</syllabic>
     <text>mon</text>
    </lyric>
    <lyric default-y="-105" number="part1verse2" color="#000000">
     <syllabic>end</syllabic>
     <text>ing</text>
    </lyric>
   </note>
   <note color="#000000" default-x="161" default-y="-40">
    <pitch>
     <step>E</step>
     <alter>-1</alter>
     <octave>5</octave>
    </pitch>
    <duration>384</duration>
    <instrument id="P1-I1" />
    <voice>1</voice>
    <type>quarter</type>
    <dot />
    <stem>down</stem>
    <staff>1</staff>
    <notations>
     <articulations>
      <tenuto />
     </articulations>
    </notations>
    <lyric default-y="-80" number="part1verse1" color="#000000">
     <syllabic>single</syllabic>
     <text>cœur</text>
    </lyric>
    <lyric default-y="-105" number="part1verse2" color="#000000">
     <syllabic>single</syllabic>
     <text>heart,</text>
    </lyric>
   </note>
  </measure>
  <!--============== Part: P1, Measure: 11 ==============-->
  <measure number="11" width="311">
   <note default-x="15">
    <rest />
    <duration>128</duration>
    <instrument id="P1-I1" />
    <voice>1</voice>
    <type>eighth</type>
    <staff>1</staff>
   </note>
   <note color="#000000" default-x="61" default-y="-35">
    <pitch>
     <step>F</step>
     <octave>5</octave>
    </pitch>
    <duration>128</duration>
    <instrument id="P1-I1" />
    <voice>1</voice>
    <type>eighth</type>
    <stem>down</stem>
    <staff>1</staff>
    <lyric default-y="-80" number="part1verse1" color="#000000">
     <syllabic>single</syllabic>
     <text>qui</text>
    </lyric>
    <lyric default-y="-105" number="part1verse2" color="#000000">
     <syllabic>single</syllabic>
     <text>a</text>
    </lyric>
   </note>
   <note color="#000000" default-x="107" default-y="-40">
    <pitch>
     <step>E</step>
     <alter>-1</alter>
     <octave>5</octave>
    </pitch>
    <duration>128</duration>
    <instrument id="P1-I1" />
    <voice>1</voice>
    <type>eighth</type>
    <stem>down</stem>
    <staff>1</staff>
    <lyric default-y="-80" number="part1verse1" color="#000000">
     <syllabic>single</syllabic>
     <text>ne</text>
    </lyric>
    <lyric default-y="-105" number="part1verse2" color="#000000">
     <syllabic>begin</syllabic>
     <text>ti</text>
    </lyric>
   </note>
   <note color="#000000" default-x="153" default-y="-45">
    <pitch>
     <step>D</step>
     <alter>-1</alter>
     <octave>5</octave>
    </pitch>
    <duration>128</duration>
    <instrument id="P1-I1" />
    <voice>1</voice>
    <type>eighth</type>
    <stem>down</stem>
    <staff>1</staff>
    <lyric default-y="-80" number="part1verse1" color="#000000">
     <syllabic>single</syllabic>
     <text>bat</text>
    </lyric>
    <lyric default-y="-105" number="part1verse2" color="#000000">
     <syllabic>end</syllabic>
     <text>mid</text>
    </lyric>
   </note>
   <direction>
    <direction-type>
     <words default-x="205" default-y="20" justify="left" valign="middle" font-family="Didot" font-style="italic" font-size="9.3787" font-weight="normal">rit.</words>
    </direction-type>
    <voice>1</voice>
    <staff>1</staff>
   </direction>
   <note color="#000000" default-x="210" default-y="-50">
    <pitch>
     <step>C</step>
     <alter>-1</alter>
     <octave>5</octave>
    </pitch>
    <duration>128</duration>
    <instrument id="P1-I1" />
    <voice>1</voice>
    <type>eighth</type>
    <stem>down</stem>
    <staff>1</staff>
    <lyric default-y="-80" number="part1verse1" color="#000000">
     <syllabic>single</syllabic>
     <text>que</text>
    </lyric>
    <lyric default-y="-105" number="part1verse2" color="#000000">
     <syllabic>begin</syllabic>
     <text>blush</text>
    </lyric>
   </note>
   <note color="#000000" default-x="265" default-y="-40">
    <pitch>
     <step>E</step>
     <alter>-1</alter>
     <octave>5</octave>
    </pitch>
    <duration>128</duration>
    <instrument id="P1-I1" />
    <voice>1</voice>
    <type>eighth</type>
    <stem>down</stem>
    <staff>1</staff>
    <lyric default-y="-80" number="part1verse1" color="#000000">
     <syllabic>single</syllabic>
     <text>pour</text>
    </lyric>
    <lyric default-y="-105" number="part1verse2" color="#000000">
     <syllabic>end</syllabic>
     <text>ing</text>
    </lyric>
   </note>
  </measure>
  <!--============== Part: P1, Measure: 12 ==============-->
  <measure number="12" width="292">
   <note color="#000000" default-x="15" default-y="-55">
    <pitch>
     <step>B</step>
     <alter>-1</alter>
     <octave>4</octave>
    </pitch>
    <duration>384</duration>
    <instrument id="P1-I1" />
    <voice>1</voice>
    <type>quarter</type>
    <dot />
    <stem>down</stem>
    <staff>1</staff>
    <notations>
     <slur color="#000000" type="start" orientation="over" />
    </notations>
    <lyric default-y="-80" number="part1verse1" color="#000000">
     <syllabic>single</syllabic>
     <text>vous.</text>
     <extend />
    </lyric>
    <lyric default-y="-105" number="part1verse2" color="#000000">
     <syllabic>begin</syllabic>
     <text>flow</text>
    </lyric>
   </note>
   <note color="#000000" default-x="153" default-y="10">
    <pitch>
     <step>A</step>
     <alter>-1</alter>
     <octave>4</octave>
    </pitch>
    <duration>384</duration>
    <instrument id="P1-I1" />
    <voice>1</voice>
    <type>quarter</type>
    <dot />
    <stem>up</stem>
    <staff>1</staff>
    <notations>
     <slur color="#000000" type="stop" orientation="over" />
    </notations>
    <lyric default-y="-105" number="part1verse2" color="#000000">
     <syllabic>end</syllabic>
     <text>er,</text>
    </lyric>
   </note>
  </measure>
 </part>
 <part id="P2">
  <!--============== Part: P2, Measure: 5 ==============-->
  <measure number="5" width="392">
   <print new-page="yes">
    <system-layout>
     <system-margins>
      <left-margin>169</left-margin>
      <right-margin>0</right-margin>
     </system-margins>
    </system-layout>
    <staff-layout number="2">
     <staff-distance>79</staff-distance>
    </staff-layout>
   </print>
   <attributes>
    <divisions>256</divisions>
    <key color="#000000">
     <fifths>-6</fifths>
     <mode>major</mode>
    </key>
    <time color="#000000">
     <beats>6</beats>
     <beat-type>8</beat-type>
    </time>
    <staves>2</staves>
    <clef number="1" color="#000000">
     <sign>G</sign>
     <line>2</line>
    </clef>
    <clef number="2" color="#000000">
     <sign>F</sign>
     <line>4</line>
    </clef>
    <staff-details number="1" print-object="yes" />
    <staff-details number="2" print-object="yes" />
   </attributes>
   <note default-x="147">
    <rest />
    <duration>128</duration>
    <instrument id="P2-I1" />
    <voice>1</voice>
    <type>eighth</type>
    <staff>1</staff>
   </note>
   <direction>
    <direction-type>
     <dynamics default-x="181" default-y="-70" color="#000000" font-family="Opus Text Std" font-style="normal" font-size="9.3787" font-weight="normal">
      <pp />
     </dynamics>
    </direction-type>
    <voice>1</voice>
    <staff>1</staff>
   </direction>
   <note color="#000000" default-x="187" default-y="-52">
    <pitch>
     <step>E</step>
     <alter>-1</alter>
     <octave>5</octave>
    </pitch>
    <duration>128</duration>
    <instrument id="P2-I1" />
    <voice>1</voice>
    <type>eighth</type>
    <stem>down</stem>
    <staff>1</staff>
    <beam number="1">begin</beam>
    <notations>
     <slur color="#000000" type="start" orientation="over" number="2" />
    </notations>
   </note>
   <note color="#000000" default-x="187">
    <chord />
    <pitch>
     <step>E</step>
     <alter>-1</alter>
     <octave>6</octave>
    </pitch>
    <duration>128</duration>
    <instrument id="P2-I1" />
    <type>eighth</type>
    <staff>1</staff>
   </note>
   <note color="#000000" default-x="228" default-y="-52">
    <pitch>
     <step>A</step>
     <alter>-1</alter>
     <octave>4</octave>
    </pitch>
    <duration>128</duration>
    <instrument id="P2-I1" />
    <voice>1</voice>
    <type>eighth</type>
    <stem>down</stem>
    <staff>1</staff>
    <beam number="1">end</beam>
   </note>
   <note color="#000000" default-x="228">
    <chord />
    <pitch>
     <step>A</step>
     <alter>-1</alter>
     <octave>5</octave>
    </pitch>
    <duration>128</duration>
    <instrument id="P2-I1" />
    <type>eighth</type>
    <staff>1</staff>
    <notations>
     <slur color="#000000" type="stop" orientation="over" number="2" />
    </notations>
   </note>
   <note default-x="269">
    <rest />
    <duration>128</duration>
    <instrument id="P2-I1" />
    <voice>1</voice>
    <type>eighth</type>
    <staff>1</staff>
   </note>
   <note color="#000000" default-x="311" default-y="-34">
    <pitch>
     <step>E</step>
     <alter>-1</alter>
     <octave>5</octave>
    </pitch>
    <duration>128</duration>
    <instrument id="P2-I1" />
    <voice>1</voice>
    <type>eighth</type>
    <stem>down</stem>
    <staff>1</staff>
    <beam number="1">begin</beam>
    <notations>
     <slur color="#000000" type="start" orientation="over" number="2" />
    </notations>
   </note>
   <note color="#000000" default-x="311">
    <chord />
    <pitch>
     <step>E</step>
     <alter>-1</alter>
     <octave>6</octave>
    </pitch>
    <duration>128</duration>
    <instrument id="P2-I1" />
    <type>eighth</type>
    <staff>1</staff>
   </note>
   <note color="#000000" default-x="352" default-y="-34">
    <pitch>
     <step>A</step>
     <alter>-1</alter>
     <octave>5</octave>
    </pitch>
    <duration>128</duration>
    <instrument id="P2-I1" />
    <voice>1</voice>
    <type>eighth</type>
    <stem>down</stem>
    <staff>1</staff>
    <beam number="1">end</beam>
   </note>
   <note color="#000000" default-x="352">
    <chord />
    <pitch>
     <step>A</step>
     <alter>-1</alter>
     <octave>6</octave>
    </pitch>
    <duration>128</duration>
    <instrument id="P2-I1" />
    <type>eighth</type>
    <staff>1</staff>
    <notations>
     <slur color="#000000" type="stop" orientation="over" number="2" />
    </notations>
   </note>
   <backup>
    <duration>768</duration>
   </backup>
   <note color="#000000" default-x="147" default-y="-62">
    <pitch>
     <step>A</step>
     <alter>-1</alter>
     <octave>2</octave>
    </pitch>
    <duration>192</duration>
    <instrument id="P2-I1" />
    <voice>4</voice>
    <type>eighth</type>
    <time-modification>
     <actual-notes>2</actual-notes>
     <normal-notes>3</normal-notes>
     <normal-type>eighth</normal-type>
    </time-modification>
    <stem>down</stem>
    <staff>2</staff>
    <beam number="1">begin</beam>
    <notations>
     <tuplet type="start" bracket="no" number="1" default-y="-20" placement="below" />
    </notations>
   </note>
   <note color="#000000" default-x="147">
    <chord />
    <pitch>
     <step>E</step>
     <alter>-1</alter>
     <octave>3</octave>
    </pitch>
    <duration>128</duration>
    <instrument id="P2-I1" />
    <type>eighth</type>
    <time-modification>
     <actual-notes>2</actual-notes>
     <normal-notes>3</normal-notes>
     <normal-type>eighth</normal-type>
    </time-modification>
    <staff>2</staff>
    <notations>
     <tuplet type="start" bracket="no" number="1" default-y="-20" placement="below" />
    </notations>
   </note>
   <note color="#000000" default-x="208" default-y="-62">
    <pitch>
     <step>A</step>
     <alter>-1</alter>
     <octave>3</octave>
    </pitch>
    <duration>192</duration>
    <tie type="start" />
    <instrument id="P2-I1" />
    <voice>4</voice>
    <type>eighth</type>
    <time-modification>
     <actual-notes>2</actual-notes>
     <normal-notes>3</normal-notes>
     <normal-type>eighth</normal-type>
    </time-modification>
    <stem>down</stem>
    <staff>2</staff>
    <beam number="1">end</beam>
    <notations>
     <tuplet type="stop" bracket="no" number="1" default-y="-20" placement="below" />
     <tied type="start" orientation="over" />
    </notations>
   </note>
   <note color="#000000" default-x="208">
    <chord />
    <pitch>
     <step>C</step>
     <alter>-1</alter>
     <octave>4</octave>
    </pitch>
    <duration>128</duration>
    <tie type="start" />
    <instrument id="P2-I1" />
    <type>eighth</type>
    <time-modification>
     <actual-notes>2</actual-notes>
     <normal-notes>3</normal-notes>
     <normal-type>eighth</normal-type>
    </time-modification>
    <staff>2</staff>
    <notations>
     <tied type="start" orientation="over" />
    </notations>
   </note>
   <note color="#000000" default-x="208">
    <chord />
    <pitch>
     <step>E</step>
     <alter>-1</alter>
     <octave>4</octave>
    </pitch>
    <duration>128</duration>
    <tie type="start" />
    <instrument id="P2-I1" />
    <type>eighth</type>
    <time-modification>
     <actual-notes>2</actual-notes>
     <normal-notes>3</normal-notes>
     <normal-type>eighth</normal-type>
    </time-modification>
    <staff>2</staff>
    <notations>
     <tied type="start" orientation="over" />
    </notations>
   </note>
   <note color="#000000" default-x="269" default-y="47">
    <pitch>
     <step>A</step>
     <alter>-1</alter>
     <octave>3</octave>
    </pitch>
    <duration>384</duration>
    <tie type="stop" />
    <instrument id="P2-I1" />
    <voice>4</voice>
    <type>quarter</type>
    <dot />
    <stem>up</stem>
    <staff>2</staff>
    <notations>
     <tied type="stop" orientation="over" />
    </notations>
   </note>
   <note color="#000000" default-x="269">
    <chord />
    <pitch>
     <step>C</step>
     <alter>-1</alter>
     <octave>4</octave>
    </pitch>
    <duration>256</duration>
    <tie type="stop" />
    <instrument id="P2-I1" />
    <type>quarter</type>
    <dot />
    <staff>2</staff>
    <notations>
     <tied type="stop" orientation="over" />
    </notations>
   </note>
   <note color="#000000" default-x="269">
    <chord />
    <pitch>
     <step>E</step>
     <alter>-1</alter>
     <octave>4</octave>
    </pitch>
    <duration>256</duration>
    <tie type="stop" />
    <instrument id="P2-I1" />
    <type>quarter</type>
    <dot />
    <staff>2</staff>
    <notations>
     <tied type="stop" orientation="over" />
    </notations>
   </note>
   <backup>
    <duration>768</duration>
   </backup>
   <note print-object="no" default-x="147">
    <rest />
    <duration>384</duration>
    <instrument id="P2-I1" />
    <voice>5</voice>
    <type>quarter</type>
    <dot />
    <staff>2</staff>
   </note>
   <note color="#000000" default-x="269" default-y="-50">
    <pitch>
     <step>E</step>
     <alter>-1</alter>
     <octave>3</octave>
    </pitch>
    <duration>384</duration>
    <tie type="start" />
    <instrument id="P2-I1" />
    <voice>5</voice>
    <type>quarter</type>
    <dot />
    <stem>down</stem>
    <staff>2</staff>
    <notations>
     <tied type="start" orientation="under" />
    </notations>
   </note>
  </measure>
  <!--============== Part: P2, Measure: 6 ==============-->
  <measure number="6" width="273">
   <attributes />
   <note default-x="17">
    <rest />
    <duration>128</duration>
    <instrument id="P2-I1" />
    <voice>1</voice>
    <type>eighth</type>
    <staff>1</staff>
   </note>
   <note color="#000000" default-x="60" default-y="-52">
    <pitch>
     <step>E</step>
     <alter>-1</alter>
     <octave>5</octave>
    </pitch>
    <duration>128</duration>
    <instrument id="P2-I1" />
    <voice>1</voice>
    <type>eighth</type>
    <stem>down</stem>
    <staff>1</staff>
    <beam number="1">begin</beam>
    <notations>
     <slur color="#000000" type="start" orientation="over" number="2" />
    </notations>
   </note>
   <note color="#000000" default-x="60">
    <chord />
    <pitch>
     <step>E</step>
     <alter>-1</alter>
     <octave>6</octave>
    </pitch>
    <duration>128</duration>
    <instrument id="P2-I1" />
    <type>eighth</type>
    <staff>1</staff>
   </note>
   <note color="#000000" default-x="112" default-y="-52">
    <pitch>
     <step>A</step>
     <alter>-1</alter>
     <octave>4</octave>
    </pitch>
    <duration>128</duration>
    <instrument id="P2-I1" />
    <voice>1</voice>
    <type>eighth</type>
    <stem>down</stem>
    <staff>1</staff>
    <beam number="1">end</beam>
   </note>
   <note color="#000000" default-x="112">
    <chord />
    <pitch>
     <step>A</step>
     <alter>-1</alter>
     <octave>5</octave>
    </pitch>
    <duration>128</duration>
    <instrument id="P2-I1" />
    <type>eighth</type>
    <staff>1</staff>
    <notations>
     <slur color="#000000" type="stop" orientation="over" number="2" />
    </notations>
   </note>
   <note default-x="152">
    <rest />
    <duration>128</duration>
    <instrument id="P2-I1" />
    <voice>1</voice>
    <type>eighth</type>
    <staff>1</staff>
   </note>
   <note color="#000000" default-x="192" default-y="-34">
    <pitch>
     <step>E</step>
     <alter>-1</alter>
     <octave>5</octave>
    </pitch>
    <duration>128</duration>
    <instrument id="P2-I1" />
    <voice>1</voice>
    <type>eighth</type>
    <stem>down</stem>
    <staff>1</staff>
    <beam number="1">begin</beam>
    <notations>
     <slur color="#000000" type="start" orientation="over" number="2" />
    </notations>
   </note>
   <note color="#000000" default-x="192">
    <chord />
    <pitch>
     <step>E</step>
     <alter>-1</alter>
     <octave>6</octave>
    </pitch>
    <duration>128</duration>
    <instrument id="P2-I1" />
    <type>eighth</type>
    <staff>1</staff>
   </note>
   <note color="#000000" default-x="233" default-y="-34">
    <pitch>
     <step>A</step>
     <alter>-1</alter>
     <octave>5</octave>
    </pitch>
    <duration>128</duration>
    <instrument id="P2-I1" />
    <voice>1</voice>
    <type>eighth</type>
    <stem>down</stem>
    <staff>1</staff>
    <beam number="1">end</beam>
   </note>
   <note color="#000000" default-x="233">
    <chord />
    <pitch>
     <step>A</step>
     <alter>-1</alter>
     <octave>6</octave>
    </pitch>
    <duration>128</duration>
    <instrument id="P2-I1" />
    <type>eighth</type>
    <staff>1</staff>
    <notations>
     <slur color="#000000" type="stop" orientation="over" number="2" />
    </notations>
   </note>
   <backup>
    <duration>768</duration>
   </backup>
   <note color="#000000" default-x="17" default-y="52">
    <pitch>
     <step>F</step>
     <alter>-1</alter>
     <octave>4</octave>
    </pitch>
    <duration>384</duration>
    <instrument id="P2-I1" />
    <voice>4</voice>
    <type>quarter</type>
    <dot />
    <accidental>flat</accidental>
    <stem>up</stem>
    <staff>2</staff>
   </note>
   <note color="#000000" default-x="152" default-y="52">
    <pitch>
     <step>F</step>
     <octave>4</octave>
    </pitch>
    <duration>384</duration>
    <instrument id="P2-I1" />
    <voice>4</voice>
    <type>quarter</type>
    <dot />
    <accidental>natural</accidental>
    <stem>up</stem>
    <staff>2</staff>
   </note>
   <backup>
    <duration>768</duration>
   </backup>
   <note color="#000000" default-x="17" default-y="-50">
    <pitch>
     <step>E</step>
     <alter>-1</alter>
     <octave>3</octave>
    </pitch>
    <duration>768</duration>
    <tie type="stop" />
    <instrument id="P2-I1" />
    <voice>5</voice>
    <type>half</type>
    <dot />
    <stem>down</stem>
    <staff>2</staff>
    <notations>
     <tied type="stop" orientation="under" />
    </notations>
   </note>
   <note color="#000000" default-x="17">
    <chord />
    <pitch>
     <step>A</step>
     <alter>-1</alter>
     <octave>3</octave>
    </pitch>
    <duration>512</duration>
    <instrument id="P2-I1" />
    <type>half</type>
    <dot />
    <staff>2</staff>
   </note>
   <note color="#000000" default-x="17">
    <chord />
    <pitch>
     <step>C</step>
     <alter>-1</alter>
     <octave>4</octave>
    </pitch>
    <duration>512</duration>
    <instrument id="P2-I1" />
    <type>half</type>
    <dot />
    <staff>2</staff>
   </note>
  </measure>
  <!--============== Part: P2, Measure: 7 ==============-->
  <measure number="7" width="256">
   <attributes />
   <note default-x="15">
    <rest />
    <duration>128</duration>
    <instrument id="P2-I1" />
    <voice>1</voice>
    <type>eighth</type>
    <staff>1</staff>
   </note>
   <direction>
    <direction-type>
     <dynamics default-x="49" default-y="-70" color="#000000" font-family="Opus Text Std" font-style="normal" font-size="9.3787" font-weight="normal">
      <pp />
     </dynamics>
    </direction-type>
    <voice>1</voice>
    <staff>1</staff>
   </direction>
   <note color="#000000" default-x="55" default-y="-52">
    <pitch>
     <step>E</step>
     <alter>-1</alter>
     <octave>5</octave>
    </pitch>
    <duration>128</duration>
    <instrument id="P2-I1" />
    <voice>1</voice>
    <type>eighth</type>
    <stem>down</stem>
    <staff>1</staff>
    <beam number="1">begin</beam>
    <notations>
     <slur color="#000000" type="start" orientation="over" number="2" />
    </notations>
   </note>
   <note color="#000000" default-x="55">
    <chord />
    <pitch>
     <step>E</step>
     <alter>-1</alter>
     <octave>6</octave>
    </pitch>
    <duration>128</duration>
    <instrument id="P2-I1" />
    <type>eighth</type>
    <staff>1</staff>
   </note>
   <note color="#000000" default-x="95" default-y="-52">
    <pitch>
     <step>A</step>
     <alter>-1</alter>
     <octave>4</octave>
    </pitch>
    <duration>128</duration>
    <instrument id="P2-I1" />
    <voice>1</voice>
    <type>eighth</type>
    <stem>down</stem>
    <staff>1</staff>
    <beam number="1">end</beam>
   </note>
   <note color="#000000" default-x="95">
    <chord />
    <pitch>
     <step>A</step>
     <alter>-1</alter>
     <octave>5</octave>
    </pitch>
    <duration>128</duration>
    <instrument id="P2-I1" />
    <type>eighth</type>
    <staff>1</staff>
    <notations>
     <slur color="#000000" type="stop" orientation="over" number="2" />
    </notations>
   </note>
   <note default-x="135">
    <rest />
    <duration>128</duration>
    <instrument id="P2-I1" />
    <voice>1</voice>
    <type>eighth</type>
    <staff>1</staff>
   </note>
   <note color="#000000" default-x="176" default-y="-34">
    <pitch>
     <step>E</step>
     <alter>-1</alter>
     <octave>5</octave>
    </pitch>
    <duration>128</duration>
    <instrument id="P2-I1" />
    <voice>1</voice>
    <type>eighth</type>
    <stem>down</stem>
    <staff>1</staff>
    <beam number="1">begin</beam>
    <notations>
     <slur color="#000000" type="start" orientation="over" number="2" />
    </notations>
   </note>
   <note color="#000000" default-x="176">
    <chord />
    <pitch>
     <step>E</step>
     <alter>-1</alter>
     <octave>6</octave>
    </pitch>
    <duration>128</duration>
    <instrument id="P2-I1" />
    <type>eighth</type>
    <staff>1</staff>
   </note>
   <note color="#000000" default-x="216" default-y="-34">
    <pitch>
     <step>A</step>
     <alter>-1</alter>
     <octave>5</octave>
    </pitch>
    <duration>128</duration>
    <instrument id="P2-I1" />
    <voice>1</voice>
    <type>eighth</type>
    <stem>down</stem>
    <staff>1</staff>
    <beam number="1">end</beam>
   </note>
   <note color="#000000" default-x="216">
    <chord />
    <pitch>
     <step>A</step>
     <alter>-1</alter>
     <octave>6</octave>
    </pitch>
    <duration>128</duration>
    <instrument id="P2-I1" />
    <type>eighth</type>
    <staff>1</staff>
    <notations>
     <slur color="#000000" type="stop" orientation="over" number="2" />
    </notations>
   </note>
   <backup>
    <duration>768</duration>
   </backup>
   <note color="#000000" default-x="15" default-y="-62">
    <pitch>
     <step>A</step>
     <alter>-1</alter>
     <octave>2</octave>
    </pitch>
    <duration>192</duration>
    <instrument id="P2-I1" />
    <voice>4</voice>
    <type>eighth</type>
    <time-modification>
     <actual-notes>2</actual-notes>
     <normal-notes>3</normal-notes>
     <normal-type>eighth</normal-type>
    </time-modification>
    <stem>down</stem>
    <staff>2</staff>
    <beam number="1">begin</beam>
    <notations>
     <tuplet type="start" bracket="no" number="1" default-y="-20" placement="below" />
    </notations>
   </note>
   <note color="#000000" default-x="15">
    <chord />
    <pitch>
     <step>E</step>
     <alter>-1</alter>
     <octave>3</octave>
    </pitch>
    <duration>128</duration>
    <instrument id="P2-I1" />
    <type>eighth</type>
    <time-modification>
     <actual-notes>2</actual-notes>
     <normal-notes>3</normal-notes>
     <normal-type>eighth</normal-type>
    </time-modification>
    <staff>2</staff>
    <notations>
     <tuplet type="start" bracket="no" number="1" default-y="-20" placement="below" />
    </notations>
   </note>
   <note color="#000000" default-x="75" default-y="-62">
    <pitch>
     <step>A</step>
     <alter>-1</alter>
     <octave>3</octave>
    </pitch>
    <duration>192</duration>
    <tie type="start" />
    <instrument id="P2-I1" />
    <voice>4</voice>
    <type>eighth</type>
    <time-modification>
     <actual-notes>2</actual-notes>
     <normal-notes>3</normal-notes>
     <normal-type>eighth</normal-type>
    </time-modification>
    <stem>down</stem>
    <staff>2</staff>
    <beam number="1">end</beam>
    <notations>
     <tuplet type="stop" bracket="no" number="1" default-y="-20" placement="below" />
     <tied type="start" orientation="under" />
    </notations>
   </note>
   <note color="#000000" default-x="75">
    <chord />
    <pitch>
     <step>C</step>
     <alter>-1</alter>
     <octave>4</octave>
    </pitch>
    <duration>128</duration>
    <tie type="start" />
    <instrument id="P2-I1" />
    <type>eighth</type>
    <time-modification>
     <actual-notes>2</actual-notes>
     <normal-notes>3</normal-notes>
     <normal-type>eighth</normal-type>
    </time-modification>
    <staff>2</staff>
    <notations>
     <tied type="start" orientation="over" />
    </notations>
   </note>
   <note color="#000000" default-x="75">
    <chord />
    <pitch>
     <step>E</step>
     <alter>-1</alter>
     <octave>4</octave>
    </pitch>
    <duration>128</duration>
    <tie type="start" />
    <instrument id="P2-I1" />
    <type>eighth</type>
    <time-modification>
     <actual-notes>2</actual-notes>
     <normal-notes>3</normal-notes>
     <normal-type>eighth</normal-type>
    </time-modification>
    <staff>2</staff>
    <notations>
     <tied type="start" orientation="over" />
    </notations>
   </note>
   <note color="#000000" default-x="135" default-y="47">
    <pitch>
     <step>A</step>
     <alter>-1</alter>
     <octave>3</octave>
    </pitch>
    <duration>384</duration>
    <tie type="stop" />
    <instrument id="P2-I1" />
    <voice>4</voice>
    <type>quarter</type>
    <dot />
    <stem>up</stem>
    <staff>2</staff>
    <notations>
     <tied type="stop" orientation="under" />
    </notations>
   </note>
   <note color="#000000" default-x="135">
    <chord />
    <pitch>
     <step>C</step>
     <alter>-1</alter>
     <octave>4</octave>
    </pitch>
    <duration>256</duration>
    <tie type="stop" />
    <instrument id="P2-I1" />
    <type>quarter</type>
    <dot />
    <staff>2</staff>
    <notations>
     <tied type="stop" orientation="over" />
    </notations>
   </note>
   <note color="#000000" default-x="135">
    <chord />
    <pitch>
     <step>E</step>
     <alter>-1</alter>
     <octave>4</octave>
    </pitch>
    <duration>256</duration>
    <tie type="stop" />
    <instrument id="P2-I1" />
    <type>quarter</type>
    <dot />
    <staff>2</staff>
    <notations>
     <tied type="stop" orientation="over" />
    </notations>
   </note>
   <backup>
    <duration>768</duration>
   </backup>
   <note print-object="no" default-x="15">
    <rest />
    <duration>384</duration>
    <instrument id="P2-I1" />
    <voice>5</voice>
    <type>quarter</type>
    <dot />
    <staff>2</staff>
   </note>
   <note color="#000000" default-x="135" default-y="-50">
    <pitch>
     <step>E</step>
     <alter>-1</alter>
     <octave>3</octave>
    </pitch>
    <duration>384</duration>
    <tie type="start" />
    <instrument id="P2-I1" />
    <voice>5</voice>
    <type>quarter</type>
    <dot />
    <stem>down</stem>
    <staff>2</staff>
    <notations>
     <tied type="start" orientation="under" />
    </notations>
   </note>
  </measure>
  <!--============== Part: P2, Measure: 8 ==============-->
  <measure number="8" width="259">
   <attributes />
   <note default-x="17">
    <rest />
    <duration>128</duration>
    <instrument id="P2-I1" />
    <voice>1</voice>
    <type>eighth</type>
    <staff>1</staff>
   </note>
   <note color="#000000" default-x="57" default-y="-52">
    <pitch>
     <step>E</step>
     <alter>-1</alter>
     <octave>5</octave>
    </pitch>
    <duration>128</duration>
    <instrument id="P2-I1" />
    <voice>1</voice>
    <type>eighth</type>
    <stem>down</stem>
    <staff>1</staff>
    <beam number="1">begin</beam>
    <notations>
     <slur color="#000000" type="start" orientation="over" number="2" />
    </notations>
   </note>
   <note color="#000000" default-x="57">
    <chord />
    <pitch>
     <step>E</step>
     <alter>-1</alter>
     <octave>6</octave>
    </pitch>
    <duration>128</duration>
    <instrument id="P2-I1" />
    <type>eighth</type>
    <staff>1</staff>
   </note>
   <note color="#000000" default-x="98" default-y="-52">
    <pitch>
     <step>A</step>
     <alter>-1</alter>
     <octave>4</octave>
    </pitch>
    <duration>128</duration>
    <instrument id="P2-I1" />
    <voice>1</voice>
    <type>eighth</type>
    <stem>down</stem>
    <staff>1</staff>
    <beam number="1">end</beam>
   </note>
   <note color="#000000" default-x="98">
    <chord />
    <pitch>
     <step>A</step>
     <alter>-1</alter>
     <octave>5</octave>
    </pitch>
    <duration>128</duration>
    <instrument id="P2-I1" />
    <type>eighth</type>
    <staff>1</staff>
    <notations>
     <slur color="#000000" type="stop" orientation="over" number="2" />
    </notations>
   </note>
   <note default-x="138">
    <rest />
    <duration>128</duration>
    <instrument id="P2-I1" />
    <voice>1</voice>
    <type>eighth</type>
    <staff>1</staff>
   </note>
   <note color="#000000" default-x="179" default-y="-34">
    <pitch>
     <step>E</step>
     <alter>-1</alter>
     <octave>5</octave>
    </pitch>
    <duration>128</duration>
    <instrument id="P2-I1" />
    <voice>1</voice>
    <type>eighth</type>
    <stem>down</stem>
    <staff>1</staff>
    <beam number="1">begin</beam>
    <notations>
     <slur color="#000000" type="start" orientation="over" number="2" />
    </notations>
   </note>
   <note color="#000000" default-x="179">
    <chord />
    <pitch>
     <step>E</step>
     <alter>-1</alter>
     <octave>6</octave>
    </pitch>
    <duration>128</duration>
    <instrument id="P2-I1" />
    <type>eighth</type>
    <staff>1</staff>
   </note>
   <note color="#000000" default-x="219" default-y="-34">
    <pitch>
     <step>A</step>
     <alter>-1</alter>
     <octave>5</octave>
    </pitch>
    <duration>128</duration>
    <instrument id="P2-I1" />
    <voice>1</voice>
    <type>eighth</type>
    <stem>down</stem>
    <staff>1</staff>
    <beam number="1">end</beam>
   </note>
   <note color="#000000" default-x="219">
    <chord />
    <pitch>
     <step>A</step>
     <alter>-1</alter>
     <octave>6</octave>
    </pitch>
    <duration>128</duration>
    <instrument id="P2-I1" />
    <type>eighth</type>
    <staff>1</staff>
    <notations>
     <slur color="#000000" type="stop" orientation="over" number="2" />
    </notations>
   </note>
   <backup>
    <duration>768</duration>
   </backup>
   <note color="#000000" default-x="17" default-y="52">
    <pitch>
     <step>F</step>
     <alter>-1</alter>
     <octave>4</octave>
    </pitch>
    <duration>384</duration>
    <instrument id="P2-I1" />
    <voice>4</voice>
    <type>quarter</type>
    <dot />
    <accidental>flat</accidental>
    <stem>up</stem>
    <staff>2</staff>
   </note>
   <note color="#000000" default-x="138" default-y="52">
    <pitch>
     <step>F</step>
     <octave>4</octave>
    </pitch>
    <duration>384</duration>
    <instrument id="P2-I1" />
    <voice>4</voice>
    <type>quarter</type>
    <dot />
    <accidental>natural</accidental>
    <stem>up</stem>
    <staff>2</staff>
   </note>
   <backup>
    <duration>768</duration>
   </backup>
   <note color="#000000" default-x="17" default-y="-50">
    <pitch>
     <step>E</step>
     <alter>-1</alter>
     <octave>3</octave>
    </pitch>
    <duration>768</duration>
    <tie type="stop" />
    <instrument id="P2-I1" />
    <voice>5</voice>
    <type>half</type>
    <dot />
    <stem>down</stem>
    <staff>2</staff>
    <notations>
     <tied type="stop" orientation="under" />
    </notations>
   </note>
   <note color="#000000" default-x="17">
    <chord />
    <pitch>
     <step>A</step>
     <alter>-1</alter>
     <octave>3</octave>
    </pitch>
    <duration>512</duration>
    <instrument id="P2-I1" />
    <type>half</type>
    <dot />
    <staff>2</staff>
   </note>
   <note color="#000000" default-x="17">
    <chord />
    <pitch>
     <step>C</step>
     <alter>-1</alter>
     <octave>4</octave>
    </pitch>
    <duration>512</duration>
    <instrument id="P2-I1" />
    <type>half</type>
    <dot />
    <staff>2</staff>
   </note>
  </measure>
  <!--============== Part: P2, Measure: 9 ==============-->
  <measure number="9" width="379">
   <print new-system="yes">
    <system-layout>
     <system-margins>
      <left-margin>95</left-margin>
      <right-margin>0</right-margin>
     </system-margins>
    </system-layout>
    <staff-layout number="2">
     <staff-distance>101</staff-distance>
    </staff-layout>
   </print>
   <attributes>
    <staff-details number="1" print-object="yes" />
    <staff-details number="2" print-object="yes" />
   </attributes>
   <direction>
    <direction-type>
     <dynamics default-x="106" default-y="-106" color="#000000" font-family="Opus Text Std" font-style="normal" font-size="9.3787" font-weight="normal">
      <p />
     </dynamics>
    </direction-type>
    <voice>1</voice>
    <staff>1</staff>
   </direction>
   <direction>
    <direction-type>
     <wedge default-x="-13" default-y="-107" color="#000000" type="diminuendo" />
    </direction-type>
    <offset sound="no">128</offset>
    <voice>1</voice>
    <staff>1</staff>
   </direction>
   <direction>
    <direction-type>
     <wedge default-x="-8" default-y="-107" color="#000000" type="stop" />
    </direction-type>
    <offset sound="no">767</offset>
    <voice>1</voice>
    <staff>1</staff>
   </direction>
   <note default-x="130">
    <rest />
    <duration>128</duration>
    <instrument id="P2-I1" />
    <voice>1</voice>
    <type>eighth</type>
    <staff>1</staff>
   </note>
   <note color="#000000" default-x="176" default-y="22">
    <pitch>
     <step>E</step>
     <alter>-1</alter>
     <octave>5</octave>
    </pitch>
    <duration>128</duration>
    <instrument id="P2-I1" />
    <voice>1</voice>
    <type>eighth</type>
    <stem>up</stem>
    <staff>1</staff>
    <beam number="1">begin</beam>
    <notations>
     <slur color="#000000" type="start" orientation="over" />
     <articulations>
      <staccato />
     </articulations>
    </notations>
   </note>
   <note color="#000000" default-x="223" default-y="22">
    <pitch>
     <step>A</step>
     <alter>-1</alter>
     <octave>4</octave>
    </pitch>
    <duration>128</duration>
    <instrument id="P2-I1" />
    <voice>1</voice>
    <type>eighth</type>
    <stem>up</stem>
    <staff>1</staff>
    <beam number="1">end</beam>
    <notations>
     <articulations>
      <staccato />
     </articulations>
    </notations>
   </note>
   <note color="#000000" default-x="269" default-y="22">
    <pitch>
     <step>E</step>
     <alter>-1</alter>
     <octave>5</octave>
    </pitch>
    <duration>384</duration>
    <instrument id="P2-I1" />
    <voice>1</voice>
    <type>quarter</type>
    <dot />
    <stem>up</stem>
    <staff>1</staff>
    <notations>
     <slur color="#000000" type="stop" orientation="over" />
     <articulations>
      <detached-legato />
     </articulations>
    </notations>
   </note>
   <backup>
    <duration>768</duration>
   </backup>
   <note color="#000000" default-x="130" default-y="47">
    <pitch>
     <step>C</step>
     <alter>-1</alter>
     <octave>4</octave>
    </pitch>
    <duration>768</duration>
    <tie type="start" />
    <instrument id="P2-I1" />
    <voice>4</voice>
    <type>half</type>
    <dot />
    <stem>up</stem>
    <staff>1</staff>
    <notations>
     <tied type="start" orientation="under" />
    </notations>
   </note>
   <note color="#000000" default-x="130">
    <chord />
    <pitch>
     <step>E</step>
     <alter>-1</alter>
     <octave>4</octave>
    </pitch>
    <duration>512</duration>
    <tie type="start" />
    <instrument id="P2-I1" />
    <type>half</type>
    <dot />
    <staff>1</staff>
    <notations>
     <tied type="start" orientation="under" />
    </notations>
   </note>
   <backup>
    <duration>768</duration>
   </backup>
   <note color="#000000" default-x="130" default-y="-82">
    <pitch>
     <step>D</step>
     <alter>-1</alter>
     <octave>2</octave>
    </pitch>
    <duration>768</duration>
    <tie type="start" />
    <instrument id="P2-I1" />
    <voice>5</voice>
    <type>half</type>
    <dot />
    <stem>down</stem>
    <staff>2</staff>
    <notations>
     <tied type="start" orientation="under" />
    </notations>
   </note>
   <backup>
    <duration>768</duration>
   </backup>
   <note color="#000000" default-x="130" default-y="87">
    <pitch>
     <step>F</step>
     <octave>3</octave>
    </pitch>
    <duration>768</duration>
    <tie type="start" />
    <instrument id="P2-I1" />
    <voice>6</voice>
    <type>half</type>
    <dot />
    <stem>up</stem>
    <staff>2</staff>
    <notations>
     <tied type="start" orientation="over" />
    </notations>
   </note>
  </measure>
  <!--============== Part: P2, Measure: 10 ==============-->
  <measure number="10" width="272">
   <attributes />
   <note print-object="no" default-x="15">
    <rest />
    <duration>768</duration>
    <instrument id="P2-I1" />
    <voice>1</voice>
    <type>whole</type>
    <staff>1</staff>
   </note>
   <backup>
    <duration>768</duration>
   </backup>
   <note color="#000000" default-x="15" default-y="-10">
    <pitch>
     <step>B</step>
     <alter>-1</alter>
     <octave>3</octave>
    </pitch>
    <duration>768</duration>
    <instrument id="P2-I1" />
    <voice>3</voice>
    <type>half</type>
    <dot />
    <stem>up</stem>
    <staff>1</staff>
   </note>
   <note color="#000000" default-x="15">
    <chord />
    <pitch>
     <step>D</step>
     <alter>-1</alter>
     <octave>4</octave>
    </pitch>
    <duration>512</duration>
    <instrument id="P2-I1" />
    <type>half</type>
    <dot />
    <staff>1</staff>
   </note>
   <backup>
    <duration>768</duration>
   </backup>
   <note default-x="15">
    <rest />
    <duration>128</duration>
    <instrument id="P2-I1" />
    <voice>4</voice>
    <type>eighth</type>
    <staff>2</staff>
   </note>
   <note color="#000000" default-x="61" default-y="27">
    <pitch>
     <step>A</step>
     <alter>-2</alter>
     <octave>3</octave>
    </pitch>
    <duration>128</duration>
    <instrument id="P2-I1" />
    <voice>4</voice>
    <type>eighth</type>
    <accidental>flat-flat</accidental>
    <stem>up</stem>
    <staff>2</staff>
    <beam number="1">begin</beam>
    <notations>
     <articulations>
      <staccato />
     </articulations>
    </notations>
   </note>
   <note color="#000000" default-x="115" default-y="27">
    <pitch>
     <step>D</step>
     <alter>-1</alter>
     <octave>3</octave>
    </pitch>
    <duration>128</duration>
    <instrument id="P2-I1" />
    <voice>4</voice>
    <type>eighth</type>
    <stem>up</stem>
    <staff>2</staff>
    <beam number="1">end</beam>
    <notations>
     <articulations>
      <staccato />
     </articulations>
    </notations>
   </note>
   <note color="#000000" default-x="161" default-y="27">
    <pitch>
     <step>A</step>
     <octave>3</octave>
    </pitch>
    <duration>256</duration>
    <instrument id="P2-I1" />
    <voice>4</voice>
    <type>quarter</type>
    <stem>up</stem>
    <staff>2</staff>
    <notations>
     <articulations>
      <detached-legato />
     </articulations>
    </notations>
   </note>
   <note print-object="no" default-x="225">
    <rest />
    <duration>128</duration>
    <instrument id="P2-I1" />
    <voice>4</voice>
    <type>eighth</type>
    <staff>2</staff>
   </note>
   <backup>
    <duration>768</duration>
   </backup>
   <note color="#000000" default-x="15" default-y="-67">
    <pitch>
     <step>G</step>
     <alter>-1</alter>
     <octave>2</octave>
    </pitch>
    <duration>768</duration>
    <instrument id="P2-I1" />
    <voice>5</voice>
    <type>half</type>
    <dot />
    <stem>down</stem>
    <staff>2</staff>
   </note>
   <backup>
    <duration>768</duration>
   </backup>
   <note color="#000000" default-x="15" default-y="92">
    <pitch>
     <step>F</step>
     <alter>-1</alter>
     <octave>3</octave>
    </pitch>
    <duration>768</duration>
    <instrument id="P2-I1" />
    <voice>6</voice>
    <type>half</type>
    <dot />
    <accidental>flat</accidental>
    <stem>up</stem>
    <staff>2</staff>
   </note>
  </measure>
  <!--============== Part: P2, Measure: 11 ==============-->
  <measure number="11" width="311">
   <attributes />
   <direction>
    <direction-type>
     <dynamics default-x="9" default-y="-88" color="#000000" font-family="Opus Text Std" font-style="normal" font-size="9.3787" font-weight="normal">
      <p />
     </dynamics>
    </direction-type>
    <voice>1</voice>
    <staff>1</staff>
   </direction>
   <direction>
    <direction-type>
     <wedge default-y="-83" color="#000000" type="diminuendo" />
    </direction-type>
    <offset sound="no">56</offset>
    <voice>1</voice>
    <staff>1</staff>
   </direction>
   <direction>
    <direction-type>
     <wedge default-x="-8" default-y="-83" color="#000000" type="stop" />
    </direction-type>
    <offset sound="no">767</offset>
    <voice>1</voice>
    <staff>1</staff>
   </direction>
   <note default-x="15">
    <rest />
    <duration>128</duration>
    <instrument id="P2-I1" />
    <voice>1</voice>
    <type>eighth</type>
    <staff>1</staff>
   </note>
   <note color="#000000" default-x="61" default-y="22">
    <pitch>
     <step>E</step>
     <alter>-1</alter>
     <octave>5</octave>
    </pitch>
    <duration>128</duration>
    <instrument id="P2-I1" />
    <voice>1</voice>
    <type>eighth</type>
    <stem>up</stem>
    <staff>1</staff>
    <beam number="1">begin</beam>
    <notations>
     <slur color="#000000" type="start" orientation="over" />
     <articulations>
      <staccato />
     </articulations>
    </notations>
   </note>
   <note color="#000000" default-x="107" default-y="22">
    <pitch>
     <step>A</step>
     <alter>-1</alter>
     <octave>4</octave>
    </pitch>
    <duration>128</duration>
    <instrument id="P2-I1" />
    <voice>1</voice>
    <type>eighth</type>
    <stem>up</stem>
    <staff>1</staff>
    <beam number="1">end</beam>
    <notations>
     <articulations>
      <staccato />
     </articulations>
    </notations>
   </note>
   <note color="#000000" default-x="153" default-y="22">
    <pitch>
     <step>E</step>
     <alter>-1</alter>
     <octave>5</octave>
    </pitch>
    <duration>384</duration>
    <instrument id="P2-I1" />
    <voice>1</voice>
    <type>quarter</type>
    <dot />
    <stem>up</stem>
    <staff>1</staff>
    <notations>
     <slur color="#000000" type="stop" orientation="over" />
     <articulations>
      <detached-legato />
     </articulations>
    </notations>
   </note>
   <backup>
    <duration>768</duration>
   </backup>
   <note color="#000000" default-x="15" default-y="47">
    <pitch>
     <step>C</step>
     <alter>-1</alter>
     <octave>4</octave>
    </pitch>
    <duration>768</duration>
    <tie type="stop" />
    <instrument id="P2-I1" />
    <voice>4</voice>
    <type>half</type>
    <dot />
    <stem>up</stem>
    <staff>1</staff>
    <notations>
     <tied type="stop" orientation="under" />
    </notations>
   </note>
   <note color="#000000" default-x="15">
    <chord />
    <pitch>
     <step>E</step>
     <alter>-1</alter>
     <octave>4</octave>
    </pitch>
    <duration>512</duration>
    <tie type="stop" />
    <instrument id="P2-I1" />
    <type>half</type>
    <dot />
    <staff>1</staff>
    <notations>
     <tied type="stop" orientation="under" />
    </notations>
   </note>
   <backup>
    <duration>768</duration>
   </backup>
   <note color="#000000" default-x="15" default-y="-82">
    <pitch>
     <step>D</step>
     <alter>-1</alter>
     <octave>2</octave>
    </pitch>
    <duration>768</duration>
    <tie type="stop" />
    <tie type="start" />
    <instrument id="P2-I1" />
    <voice>5</voice>
    <type>half</type>
    <dot />
    <stem>down</stem>
    <staff>2</staff>
    <notations>
     <tied type="stop" orientation="under" />
     <tied type="start" orientation="under" />
    </notations>
   </note>
   <backup>
    <duration>768</duration>
   </backup>
   <note color="#000000" default-x="15" default-y="87">
    <pitch>
     <step>F</step>
     <octave>3</octave>
    </pitch>
    <duration>768</duration>
    <tie type="stop" />
    <tie type="start" />
    <instrument id="P2-I1" />
    <voice>6</voice>
    <type>half</type>
    <dot />
    <accidental>natural</accidental>
    <stem>up</stem>
    <staff>2</staff>
    <notations>
     <tied type="stop" orientation="over" />
     <tied type="start" orientation="over" />
    </notations>
   </note>
  </measure>
  <!--============== Part: P2, Measure: 12 ==============-->
  <measure number="12" width="292">
   <attributes />
   <note default-x="15">
    <rest />
    <duration>256</duration>
    <instrument id="P2-I1" />
    <voice>1</voice>
    <type>quarter</type>
    <staff>1</staff>
   </note>
   <direction>
    <direction-type>
     <words default-x="77" default-y="-85" justify="left" valign="middle" font-family="Didot" font-style="italic" font-size="9.3787" font-weight="normal">dim.</words>
    </direction-type>
    <offset sound="no">-83</offset>
    <voice>1</voice>
    <staff>1</staff>
   </direction>
   <note default-x="107">
    <rest />
    <duration>128</duration>
    <instrument id="P2-I1" />
    <voice>1</voice>
    <type>eighth</type>
    <staff>1</staff>
   </note>
   <note default-x="153">
    <rest />
    <duration>128</duration>
    <instrument id="P2-I1" />
    <voice>1</voice>
    <type>eighth</type>
    <staff>1</staff>
   </note>
   <note color="#000000" default-x="200" default-y="4">
    <pitch>
     <step>A</step>
     <alter>-1</alter>
     <octave>4</octave>
    </pitch>
    <duration>128</duration>
    <instrument id="P2-I1" />
    <voice>1</voice>
    <type>eighth</type>
    <stem>up</stem>
    <staff>1</staff>
    <beam number="1">begin</beam>
    <notations>
     <slur color="#000000" type="start" orientation="under" number="2" />
    </notations>
   </note>
   <note color="#000000" default-x="246" default-y="4">
    <pitch>
     <step>D</step>
     <alter>-1</alter>
     <octave>4</octave>
    </pitch>
    <duration>128</duration>
    <instrument id="P2-I1" />
    <voice>1</voice>
    <type>eighth</type>
    <stem>up</stem>
    <staff>1</staff>
    <beam number="1">end</beam>
    <notations>
     <slur color="#000000" type="stop" orientation="under" number="2" />
    </notations>
   </note>
   <backup>
    <duration>768</duration>
   </backup>
   <note color="#000000" default-x="15" default-y="-10">
    <pitch>
     <step>B</step>
     <alter>-1</alter>
     <octave>3</octave>
    </pitch>
    <duration>768</duration>
    <instrument id="P2-I1" />
    <voice>3</voice>
    <type>half</type>
    <dot />
    <stem>up</stem>
    <staff>1</staff>
   </note>
   <note color="#000000" default-x="15">
    <chord />
    <pitch>
     <step>D</step>
     <alter>-1</alter>
     <octave>4</octave>
    </pitch>
    <duration>512</duration>
    <instrument id="P2-I1" />
    <type>half</type>
    <dot />
    <staff>1</staff>
   </note>
   <backup>
    <duration>768</duration>
   </backup>
   <note default-x="15">
    <rest />
    <duration>128</duration>
    <instrument id="P2-I1" />
    <voice>4</voice>
    <type>eighth</type>
    <staff>2</staff>
   </note>
   <note color="#000000" default-x="61" default-y="22">
    <pitch>
     <step>G</step>
     <alter>-1</alter>
     <octave>3</octave>
    </pitch>
    <duration>128</duration>
    <instrument id="P2-I1" />
    <voice>4</voice>
    <type>eighth</type>
    <stem>up</stem>
    <staff>2</staff>
    <beam number="1">begin</beam>
    <notations>
     <articulations>
      <staccato />
     </articulations>
    </notations>
   </note>
   <note color="#000000" default-x="107" default-y="22">
    <pitch>
     <step>D</step>
     <alter>-1</alter>
     <octave>3</octave>
    </pitch>
    <duration>128</duration>
    <instrument id="P2-I1" />
    <voice>4</voice>
    <type>eighth</type>
    <stem>up</stem>
    <staff>2</staff>
    <beam number="1">end</beam>
    <notations>
     <articulations>
      <staccato />
     </articulations>
    </notations>
   </note>
   <note color="#000000" default-x="153" default-y="27">
    <pitch>
     <step>A</step>
     <alter>-1</alter>
     <octave>3</octave>
    </pitch>
    <duration>256</duration>
    <instrument id="P2-I1" />
    <voice>4</voice>
    <type>quarter</type>
    <stem>up</stem>
    <staff>2</staff>
    <notations>
     <articulations>
      <detached-legato />
     </articulations>
    </notations>
   </note>
   <note print-object="no" default-x="246">
    <rest />
    <duration>128</duration>
    <instrument id="P2-I1" />
    <voice>4</voice>
    <type>eighth</type>
    <staff>2</staff>
   </note>
   <backup>
    <duration>768</duration>
   </backup>
   <note color="#000000" default-x="15" default-y="-67">
    <pitch>
     <step>G</step>
     <alter>-1</alter>
     <octave>2</octave>
    </pitch>
    <duration>768</duration>
    <instrument id="P2-I1" />
    <voice>5</voice>
    <type>half</type>
    <dot />
    <stem>down</stem>
    <staff>2</staff>
   </note>
   <backup>
    <duration>768</duration>
   </backup>
   <note color="#000000" default-x="15" default-y="92">
    <pitch>
     <step>F</step>
     <alter>-1</alter>
     <octave>3</octave>
    </pitch>
    <duration>768</duration>
    <instrument id="P2-I1" />
    <voice>6</voice>
    <type>half</type>
    <dot />
    <accidental>flat</accidental>
    <stem>up</stem>
    <staff>2</staff>
   </note>
  </measure>
 </part>
</score-partwise>
