<?xml version="1.0" encoding='UTF-8' standalone='no' ?>
<!DOCTYPE score-partwise PUBLIC "-//Recordare//DTD MusicXML 3.0 Partwise//EN" "http://www.musicxml.org/dtds/partwise.dtd">
<score-partwise version="3.0">
 <work>
  <work-title>
[T664_Hin-w82p56hZm7-14]</work-title>
 </work>
 <identification>
  <creator type="composer">Paul Hindemith</creator>
  <rights>Copyright © </rights>
  <encoding>
   <encoding-date>2021-03-20</encoding-date>
   <encoder>cdf75</encoder>
   <software>Sibelius 20.12.0</software>
   <software>Direct export, not from Dolet</software>
   <encoding-description>Sibelius / MusicXML 3.0</encoding-description>
   <supports element="print" type="yes" value="yes" attribute="new-system" />
   <supports element="print" type="yes" value="yes" attribute="new-page" />
   <supports element="accidental" type="yes" />
   <supports element="beam" type="yes" />
   <supports element="stem" type="yes" />
  </encoding>
 </identification>
 <defaults>
  <scaling>
   <millimeters>279.4</millimeters>
   <tenths>2483</tenths>
  </scaling>
  <page-layout>
   <page-height>1919</page-height>
   <page-width>2483</page-width>
   <page-margins type="both">
    <left-margin>124</left-margin>
    <right-margin>124</right-margin>
    <top-margin>124</top-margin>
    <bottom-margin>124</bottom-margin>
   </page-margins>
  </page-layout>
  <system-layout>
   <system-margins>
    <left-margin>97</left-margin>
    <right-margin>0</right-margin>
   </system-margins>
   <system-distance>162</system-distance>
  </system-layout>
  <appearance>
   <line-width type="stem">0.9375</line-width>
   <line-width type="beam">5</line-width>
   <line-width type="staff">0.9375</line-width>
   <line-width type="light barline">1.5625</line-width>
   <line-width type="heavy barline">5</line-width>
   <line-width type="leger">1.5625</line-width>
   <line-width type="ending">1.5625</line-width>
   <line-width type="wedge">1.25</line-width>
   <line-width type="enclosure">0.9375</line-width>
   <line-width type="tuplet bracket">1.25</line-width>
   <line-width type="bracket">5</line-width>
   <line-width type="dashes">1.5625</line-width>
   <line-width type="extend">0.9375</line-width>
   <line-width type="octave shift">1.5625</line-width>
   <line-width type="pedal">1.5625</line-width>
   <line-width type="slur middle">1.5625</line-width>
   <line-width type="slur tip">0.625</line-width>
   <line-width type="tie middle">1.5625</line-width>
   <line-width type="tie tip">0.625</line-width>
   <note-size type="cue">75</note-size>
   <note-size type="grace">60</note-size>
  </appearance>
  <music-font font-family="Opus Std" font-size="12.7559" />
  <word-font font-family="Plantin MT Std" font-size="7.6735" />
  <lyric-font font-family="Plantin MT Std" font-size="7.3745" />
  <lyric-language xml:lang="en" />
 </defaults>
 <credit page="1">
  <credit-words default-x="1241" default-y="155" font-family="Plantin MT Std" font-style="normal" font-size="14.1511" font-weight="normal" justify="center" valign="middle">
[T664_Hin-w82p56hZm7-14]</credit-words>
 </credit>
 <credit page="1">
  <credit-words default-x="2359" default-y="84" font-family="Plantin MT Std" font-style="normal" font-size="7.0755" font-weight="normal" justify="right" valign="middle">Paul Hindemith</credit-words>
 </credit>
 <part-list>
  <part-group type="start" number="1">
   <group-symbol>bracket</group-symbol>
  </part-group>
  <score-part id="P1">
   <part-name>Piccolo</part-name>
   <part-name-display>
    <display-text>Piccolo</display-text>
   </part-name-display>
   <part-abbreviation>Picc.</part-abbreviation>
   <part-abbreviation-display>
    <display-text>Picc.</display-text>
   </part-abbreviation-display>
   <score-instrument id="P1-I1">
    <instrument-name>Piccolo</instrument-name>
    <instrument-sound>wind.flutes.flute.piccolo</instrument-sound>
    <solo />
   </score-instrument>
  </score-part>
  <score-part id="P2">
   <identification>
    <miscellaneous>
     <miscellaneous-field name="show-rhythms">false</miscellaneous-field>
    </miscellaneous>
   </identification>
   <part-name>Flute I. II.</part-name>
   <part-name-display>
    <display-text>Flute I. II.</display-text>
   </part-name-display>
   <part-abbreviation>Fl.</part-abbreviation>
   <part-abbreviation-display>
    <display-text>Fl.</display-text>
   </part-abbreviation-display>
   <score-instrument id="P2-I1">
    <instrument-name>Flute (2)</instrument-name>
    <instrument-sound>wind.flutes.flute</instrument-sound>
    <solo />
   </score-instrument>
  </score-part>
  <score-part id="P3">
   <part-name>Oboe I. II.</part-name>
   <part-name-display>
    <display-text>Oboe I. II.</display-text>
   </part-name-display>
   <part-abbreviation>Ob.</part-abbreviation>
   <part-abbreviation-display>
    <display-text>Ob.</display-text>
   </part-abbreviation-display>
   <score-instrument id="P3-I1">
    <instrument-name>Oboe</instrument-name>
    <instrument-sound>wind.reed.oboe</instrument-sound>
    <solo />
   </score-instrument>
  </score-part>
  <score-part id="P4">
   <part-name>Clarinet in Bb I. II.</part-name>
   <part-name-display>
    <display-text>Clarinet in B</display-text>
    <accidental-text>flat</accidental-text>
    <display-text>I. II.</display-text>
   </part-name-display>
   <part-abbreviation>Cl.</part-abbreviation>
   <part-abbreviation-display>
    <display-text>Cl.</display-text>
   </part-abbreviation-display>
   <score-instrument id="P4-I1">
    <instrument-name>Clarinet in B^b</instrument-name>
    <instrument-sound>wind.reed.clarinet</instrument-sound>
    <solo />
   </score-instrument>
  </score-part>
  <part-group type="stop" number="1" />
  <score-part id="P5">
   <identification>
    <miscellaneous>
     <miscellaneous-field name="show-rhythms">false</miscellaneous-field>
    </miscellaneous>
   </identification>
   <part-name>Timpani</part-name>
   <part-name-display>
    <display-text>Timpani</display-text>
   </part-name-display>
   <part-abbreviation>Timp.</part-abbreviation>
   <part-abbreviation-display>
    <display-text>Timp.</display-text>
   </part-abbreviation-display>
   <score-instrument id="P5-I1">
    <instrument-name>Timpani (2)</instrument-name>
    <instrument-sound>drum.timpani</instrument-sound>
    <solo />
   </score-instrument>
  </score-part>
  <part-group type="start" number="2">
   <group-symbol>brace</group-symbol>
  </part-group>
  <score-part id="P6">
   <identification>
    <miscellaneous>
     <miscellaneous-field name="show-rhythms">false</miscellaneous-field>
    </miscellaneous>
   </identification>
   <part-name>P6</part-name>
   <part-abbreviation>Tub. B.</part-abbreviation>
   <part-abbreviation-display>
    <display-text>Tub. B.</display-text>
   </part-abbreviation-display>
   <score-instrument id="P6-I1">
    <instrument-name>Tubular Bells</instrument-name>
    <instrument-sound>pitched-percussion.tubular-bells</instrument-sound>
    <solo />
   </score-instrument>
  </score-part>
  <score-part id="P7">
   <identification>
    <miscellaneous>
     <miscellaneous-field name="show-rhythms">false</miscellaneous-field>
    </miscellaneous>
   </identification>
   <part-name>Percussion</part-name>
   <part-name-display>
    <display-text>Percussion</display-text>
   </part-name-display>
   <part-abbreviation>Perc.</part-abbreviation>
   <part-abbreviation-display>
    <display-text>Perc.</display-text>
   </part-abbreviation-display>
   <score-instrument id="P7-I1">
    <instrument-name>Percussion (8)</instrument-name>
   </score-instrument>
  </score-part>
  <score-part id="P8">
   <part-name>P8</part-name>
   <part-abbreviation>Perc.</part-abbreviation>
   <part-abbreviation-display>
    <display-text>Perc.</display-text>
   </part-abbreviation-display>
   <score-instrument id="P8-I1">
    <instrument-name>Percussion (8)</instrument-name>
   </score-instrument>
  </score-part>
  <part-group type="stop" number="2" />
 </part-list>
 <part id="P1">
  <!--============== Part: P1, Measure: 288 ==============-->
  <measure number="288" width="333">
   <print new-page="yes">
    <system-layout>
     <system-margins>
      <left-margin>164</left-margin>
      <right-margin>0</right-margin>
     </system-margins>
     <top-system-distance>218</top-system-distance>
    </system-layout>
   </print>
   <attributes>
    <divisions>256</divisions>
    <key color="#000000">
     <fifths>0</fifths>
     <mode>none</mode>
    </key>
    <time color="#000000">
     <beats>2</beats>
     <beat-type>2</beat-type>
    </time>
    <staves>1</staves>
    <clef number="1" color="#000000">
     <sign>G</sign>
     <line>2</line>
    </clef>
    <staff-details number="1" print-object="yes" />
    <transpose>
     <diatonic>0</diatonic>
     <chromatic>0</chromatic>
     <octave-change>1</octave-change>
    </transpose>
   </attributes>
   <direction>
    <direction-type>
     <metronome default-y="30" color="#000000" font-family="Opus Text Std" font-style="normal" font-size="7.6735" font-weight="normal">
      <beat-unit>quarter</beat-unit>
      <per-minute>132</per-minute>
     </metronome>
    </direction-type>
    <voice>1</voice>
    <staff>1</staff>
   </direction>
   <note default-x="75">
    <rest />
    <duration>1024</duration>
    <instrument id="P1-I1" />
    <voice>1</voice>
    <type>whole</type>
    <staff>1</staff>
   </note>
  </measure>
  <!--============== Part: P1, Measure: 289 ==============-->
  <measure number="289" width="250">
   <note default-x="15">
    <rest />
    <duration>1024</duration>
    <instrument id="P1-I1" />
    <voice>1</voice>
    <type>whole</type>
    <staff>1</staff>
   </note>
  </measure>
  <!--============== Part: P1, Measure: 290 ==============-->
  <measure number="290" width="250">
   <note default-x="15">
    <rest />
    <duration>1024</duration>
    <instrument id="P1-I1" />
    <voice>1</voice>
    <type>whole</type>
    <staff>1</staff>
   </note>
  </measure>
  <!--============== Part: P1, Measure: 291 ==============-->
  <measure number="291" width="267">
   <note default-x="15">
    <rest />
    <duration>512</duration>
    <instrument id="P1-I1" />
    <voice>1</voice>
    <type>half</type>
    <staff>1</staff>
   </note>
   <direction>
    <direction-type>
     <dynamics default-x="155" default-y="-70" color="#000000" font-family="Opus Text Std" font-style="normal" font-size="7.6735" font-weight="normal">
      <p />
     </dynamics>
    </direction-type>
    <voice>1</voice>
    <staff>1</staff>
   </direction>
   <note color="#000000" default-x="161" default-y="-20">
    <pitch>
     <step>F</step>
     <octave>6</octave>
    </pitch>
    <duration>256</duration>
    <instrument id="P1-I1" />
    <voice>1</voice>
    <type>quarter</type>
    <stem>down</stem>
    <staff>1</staff>
   </note>
   <note color="#000000" default-x="214" default-y="-20">
    <pitch>
     <step>F</step>
     <octave>6</octave>
    </pitch>
    <duration>256</duration>
    <instrument id="P1-I1" />
    <voice>1</voice>
    <type>quarter</type>
    <stem>down</stem>
    <staff>1</staff>
   </note>
  </measure>
  <!--============== Part: P1, Measure: 292 ==============-->
  <measure number="292" width="250">
   <note default-x="15">
    <rest />
    <duration>1024</duration>
    <instrument id="P1-I1" />
    <voice>1</voice>
    <type>whole</type>
    <staff>1</staff>
   </note>
  </measure>
  <!--============== Part: P1, Measure: 293 ==============-->
  <measure number="293" width="266">
   <note color="#000000" default-x="15" default-y="-20">
    <pitch>
     <step>F</step>
     <octave>6</octave>
    </pitch>
    <duration>256</duration>
    <instrument id="P1-I1" />
    <voice>1</voice>
    <type>quarter</type>
    <stem>down</stem>
    <staff>1</staff>
   </note>
   <note color="#000000" default-x="67" default-y="-20">
    <pitch>
     <step>F</step>
     <octave>6</octave>
    </pitch>
    <duration>256</duration>
    <instrument id="P1-I1" />
    <voice>1</voice>
    <type>quarter</type>
    <stem>down</stem>
    <staff>1</staff>
   </note>
   <note default-x="120">
    <rest />
    <duration>512</duration>
    <instrument id="P1-I1" />
    <voice>1</voice>
    <type>half</type>
    <staff>1</staff>
   </note>
  </measure>
  <!--============== Part: P1, Measure: 294 ==============-->
  <measure number="294" width="226">
   <direction>
    <direction-type>
     <dynamics default-x="9" default-y="-70" color="#000000" font-family="Opus Text Std" font-style="normal" font-size="7.6735" font-weight="normal">
      <pp />
     </dynamics>
    </direction-type>
    <voice>1</voice>
    <staff>1</staff>
   </direction>
   <note color="#000000" default-x="15" default-y="-20">
    <pitch>
     <step>F</step>
     <octave>6</octave>
    </pitch>
    <duration>256</duration>
    <instrument id="P1-I1" />
    <voice>1</voice>
    <type>quarter</type>
    <stem>down</stem>
    <staff>1</staff>
   </note>
   <note color="#000000" default-x="67" default-y="-20">
    <pitch>
     <step>F</step>
     <octave>6</octave>
    </pitch>
    <duration>256</duration>
    <instrument id="P1-I1" />
    <voice>1</voice>
    <type>quarter</type>
    <stem>down</stem>
    <staff>1</staff>
   </note>
   <note default-x="120">
    <rest />
    <duration>512</duration>
    <instrument id="P1-I1" />
    <voice>1</voice>
    <type>half</type>
    <staff>1</staff>
   </note>
  </measure>
  <!--============== Part: P1, Measure: 295 ==============-->
  <measure number="295" width="226">
   <note color="#000000" default-x="15" default-y="-20">
    <pitch>
     <step>F</step>
     <octave>6</octave>
    </pitch>
    <duration>256</duration>
    <instrument id="P1-I1" />
    <voice>1</voice>
    <type>quarter</type>
    <stem>down</stem>
    <staff>1</staff>
   </note>
   <note color="#000000" default-x="67" default-y="-20">
    <pitch>
     <step>F</step>
     <octave>6</octave>
    </pitch>
    <duration>256</duration>
    <instrument id="P1-I1" />
    <voice>1</voice>
    <type>quarter</type>
    <stem>down</stem>
    <staff>1</staff>
   </note>
   <note default-x="120">
    <rest />
    <duration>512</duration>
    <instrument id="P1-I1" />
    <voice>1</voice>
    <type>half</type>
    <staff>1</staff>
   </note>
  </measure>
 </part>
 <part id="P2">
  <!--============== Part: P2, Measure: 288 ==============-->
  <measure number="288" width="333">
   <print new-page="yes">
    <system-layout>
     <system-margins>
      <left-margin>164</left-margin>
      <right-margin>0</right-margin>
     </system-margins>
    </system-layout>
    <staff-layout number="1">
     <staff-distance>137</staff-distance>
    </staff-layout>
   </print>
   <attributes>
    <divisions>256</divisions>
    <key color="#000000">
     <fifths>0</fifths>
     <mode>none</mode>
    </key>
    <time color="#000000">
     <beats>2</beats>
     <beat-type>2</beat-type>
    </time>
    <staves>1</staves>
    <clef number="1" color="#000000">
     <sign>G</sign>
     <line>2</line>
    </clef>
    <staff-details number="1" print-object="yes" />
   </attributes>
   <note default-x="75">
    <rest />
    <duration>512</duration>
    <instrument id="P2-I1" />
    <voice>1</voice>
    <type>half</type>
    <staff>1</staff>
   </note>
   <direction>
    <direction-type>
     <dynamics default-x="174" default-y="-70" color="#000000" font-family="Opus Text Std" font-style="normal" font-size="7.6735" font-weight="normal">
      <mp />
     </dynamics>
    </direction-type>
    <voice>1</voice>
    <staff>1</staff>
   </direction>
   <note color="#000000" default-x="180" default-y="-25">
    <pitch>
     <step>A</step>
     <octave>5</octave>
    </pitch>
    <duration>256</duration>
    <instrument id="P2-I1" />
    <voice>1</voice>
    <type>quarter</type>
    <stem>down</stem>
    <staff>1</staff>
   </note>
   <note color="#000000" default-x="180">
    <chord />
    <pitch>
     <step>F</step>
     <octave>6</octave>
    </pitch>
    <duration>256</duration>
    <instrument id="P2-I1" />
    <type>quarter</type>
    <staff>1</staff>
   </note>
   <note color="#000000" default-x="274" default-y="-25">
    <pitch>
     <step>A</step>
     <octave>5</octave>
    </pitch>
    <duration>256</duration>
    <instrument id="P2-I1" />
    <voice>1</voice>
    <type>quarter</type>
    <stem>down</stem>
    <staff>1</staff>
   </note>
   <note color="#000000" default-x="274">
    <chord />
    <pitch>
     <step>F</step>
     <octave>6</octave>
    </pitch>
    <duration>256</duration>
    <instrument id="P2-I1" />
    <type>quarter</type>
    <staff>1</staff>
   </note>
  </measure>
  <!--============== Part: P2, Measure: 289 ==============-->
  <measure number="289" width="250">
   <note default-x="15">
    <rest />
    <duration>1024</duration>
    <instrument id="P2-I1" />
    <voice>1</voice>
    <type>whole</type>
    <staff>1</staff>
   </note>
  </measure>
  <!--============== Part: P2, Measure: 290 ==============-->
  <measure number="290" width="250">
   <direction>
    <direction-type>
     <dynamics default-x="9" default-y="-70" color="#000000" font-family="Opus Text Std" font-style="normal" font-size="7.6735" font-weight="normal">
      <p />
     </dynamics>
    </direction-type>
    <voice>1</voice>
    <staff>1</staff>
   </direction>
   <direction>
    <direction-type>
     <words default-x="9" default-y="43" justify="left" valign="middle" font-family="Plantin MT Std" font-style="normal" font-size="7.6735" font-weight="normal">I.</words>
    </direction-type>
    <voice>1</voice>
    <staff>1</staff>
   </direction>
   <note color="#000000" default-x="15" default-y="-20">
    <pitch>
     <step>F</step>
     <octave>6</octave>
    </pitch>
    <duration>256</duration>
    <instrument id="P2-I1" />
    <voice>1</voice>
    <type>quarter</type>
    <stem>down</stem>
    <staff>1</staff>
   </note>
   <note color="#000000" default-x="67" default-y="-20">
    <pitch>
     <step>F</step>
     <octave>6</octave>
    </pitch>
    <duration>256</duration>
    <instrument id="P2-I1" />
    <voice>1</voice>
    <type>quarter</type>
    <stem>down</stem>
    <staff>1</staff>
   </note>
   <note default-x="120">
    <rest />
    <duration>512</duration>
    <instrument id="P2-I1" />
    <voice>1</voice>
    <type>half</type>
    <staff>1</staff>
   </note>
  </measure>
  <!--============== Part: P2, Measure: 291 ==============-->
  <measure number="291" width="267">
   <note default-x="15">
    <rest />
    <duration>512</duration>
    <instrument id="P2-I1" />
    <voice>1</voice>
    <type>half</type>
    <staff>1</staff>
   </note>
   <direction>
    <direction-type>
     <dynamics default-x="155" default-y="-70" color="#000000" font-family="Opus Text Std" font-style="normal" font-size="7.6735" font-weight="normal">
      <p />
     </dynamics>
    </direction-type>
    <voice>1</voice>
    <staff>1</staff>
   </direction>
   <note color="#000000" default-x="161" default-y="-35">
    <pitch>
     <step>F</step>
     <octave>5</octave>
    </pitch>
    <duration>256</duration>
    <instrument id="P2-I1" />
    <voice>1</voice>
    <type>quarter</type>
    <stem>down</stem>
    <staff>1</staff>
   </note>
   <note color="#000000" default-x="161">
    <chord />
    <pitch>
     <step>F</step>
     <octave>6</octave>
    </pitch>
    <duration>256</duration>
    <instrument id="P2-I1" />
    <type>quarter</type>
    <staff>1</staff>
   </note>
   <note color="#000000" default-x="214" default-y="-35">
    <pitch>
     <step>F</step>
     <octave>5</octave>
    </pitch>
    <duration>256</duration>
    <instrument id="P2-I1" />
    <voice>1</voice>
    <type>quarter</type>
    <stem>down</stem>
    <staff>1</staff>
   </note>
   <note color="#000000" default-x="214">
    <chord />
    <pitch>
     <step>F</step>
     <octave>6</octave>
    </pitch>
    <duration>256</duration>
    <instrument id="P2-I1" />
    <type>quarter</type>
    <staff>1</staff>
   </note>
  </measure>
  <!--============== Part: P2, Measure: 292 ==============-->
  <measure number="292" width="250">
   <note default-x="15">
    <rest />
    <duration>1024</duration>
    <instrument id="P2-I1" />
    <voice>1</voice>
    <type>whole</type>
    <staff>1</staff>
   </note>
  </measure>
  <!--============== Part: P2, Measure: 293 ==============-->
  <measure number="293" width="266">
   <note color="#000000" default-x="15" default-y="-35">
    <pitch>
     <step>F</step>
     <octave>5</octave>
    </pitch>
    <duration>256</duration>
    <instrument id="P2-I1" />
    <voice>1</voice>
    <type>quarter</type>
    <stem>down</stem>
    <staff>1</staff>
   </note>
   <note color="#000000" default-x="15">
    <chord />
    <pitch>
     <step>F</step>
     <octave>6</octave>
    </pitch>
    <duration>256</duration>
    <instrument id="P2-I1" />
    <type>quarter</type>
    <staff>1</staff>
   </note>
   <note color="#000000" default-x="67" default-y="-35">
    <pitch>
     <step>F</step>
     <octave>5</octave>
    </pitch>
    <duration>256</duration>
    <instrument id="P2-I1" />
    <voice>1</voice>
    <type>quarter</type>
    <stem>down</stem>
    <staff>1</staff>
   </note>
   <note color="#000000" default-x="67">
    <chord />
    <pitch>
     <step>F</step>
     <octave>6</octave>
    </pitch>
    <duration>256</duration>
    <instrument id="P2-I1" />
    <type>quarter</type>
    <staff>1</staff>
   </note>
   <note default-x="120">
    <rest />
    <duration>512</duration>
    <instrument id="P2-I1" />
    <voice>1</voice>
    <type>half</type>
    <staff>1</staff>
   </note>
  </measure>
  <!--============== Part: P2, Measure: 294 ==============-->
  <measure number="294" width="226">
   <direction>
    <direction-type>
     <dynamics default-x="9" default-y="-70" color="#000000" font-family="Opus Text Std" font-style="normal" font-size="7.6735" font-weight="normal">
      <pp />
     </dynamics>
    </direction-type>
    <voice>1</voice>
    <staff>1</staff>
   </direction>
   <direction>
    <direction-type>
     <words default-x="9" default-y="43" justify="left" valign="middle" font-family="Plantin MT Std" font-style="normal" font-size="7.6735" font-weight="normal">I.</words>
    </direction-type>
    <voice>1</voice>
    <staff>1</staff>
   </direction>
   <note color="#000000" default-x="15" default-y="-20">
    <pitch>
     <step>F</step>
     <octave>6</octave>
    </pitch>
    <duration>256</duration>
    <instrument id="P2-I1" />
    <voice>1</voice>
    <type>quarter</type>
    <stem>down</stem>
    <staff>1</staff>
   </note>
   <note color="#000000" default-x="67" default-y="-20">
    <pitch>
     <step>F</step>
     <octave>6</octave>
    </pitch>
    <duration>256</duration>
    <instrument id="P2-I1" />
    <voice>1</voice>
    <type>quarter</type>
    <stem>down</stem>
    <staff>1</staff>
   </note>
   <note default-x="120">
    <rest />
    <duration>512</duration>
    <instrument id="P2-I1" />
    <voice>1</voice>
    <type>half</type>
    <staff>1</staff>
   </note>
  </measure>
  <!--============== Part: P2, Measure: 295 ==============-->
  <measure number="295" width="226">
   <note default-x="15">
    <rest />
    <duration>1024</duration>
    <instrument id="P2-I1" />
    <voice>1</voice>
    <type>whole</type>
    <staff>1</staff>
   </note>
  </measure>
 </part>
 <part id="P3">
  <!--============== Part: P3, Measure: 288 ==============-->
  <measure number="288" width="333">
   <print new-page="yes">
    <system-layout>
     <system-margins>
      <left-margin>164</left-margin>
      <right-margin>0</right-margin>
     </system-margins>
    </system-layout>
    <staff-layout number="1">
     <staff-distance>137</staff-distance>
    </staff-layout>
   </print>
   <attributes>
    <divisions>256</divisions>
    <key color="#000000">
     <fifths>0</fifths>
     <mode>none</mode>
    </key>
    <time color="#000000">
     <beats>2</beats>
     <beat-type>2</beat-type>
    </time>
    <staves>1</staves>
    <clef number="1" color="#000000">
     <sign>G</sign>
     <line>2</line>
    </clef>
    <staff-details number="1" print-object="yes" />
   </attributes>
   <note default-x="75">
    <rest />
    <duration>512</duration>
    <instrument id="P3-I1" />
    <voice>1</voice>
    <type>half</type>
    <staff>1</staff>
   </note>
   <direction>
    <direction-type>
     <dynamics default-x="174" default-y="-77" color="#000000" font-family="Opus Text Std" font-style="normal" font-size="7.6735" font-weight="normal">
      <mp />
     </dynamics>
    </direction-type>
    <voice>1</voice>
    <staff>1</staff>
   </direction>
   <note color="#000000" default-x="180" default-y="-35">
    <pitch>
     <step>F</step>
     <octave>5</octave>
    </pitch>
    <duration>256</duration>
    <instrument id="P3-I1" />
    <voice>1</voice>
    <type>quarter</type>
    <stem>down</stem>
    <staff>1</staff>
   </note>
   <note color="#000000" default-x="180">
    <chord />
    <pitch>
     <step>C</step>
     <octave>6</octave>
    </pitch>
    <duration>256</duration>
    <instrument id="P3-I1" />
    <type>quarter</type>
    <staff>1</staff>
   </note>
   <note color="#000000" default-x="274" default-y="-35">
    <pitch>
     <step>F</step>
     <octave>5</octave>
    </pitch>
    <duration>256</duration>
    <instrument id="P3-I1" />
    <voice>1</voice>
    <type>quarter</type>
    <stem>down</stem>
    <staff>1</staff>
   </note>
   <note color="#000000" default-x="274">
    <chord />
    <pitch>
     <step>C</step>
     <octave>6</octave>
    </pitch>
    <duration>256</duration>
    <instrument id="P3-I1" />
    <type>quarter</type>
    <staff>1</staff>
   </note>
  </measure>
  <!--============== Part: P3, Measure: 289 ==============-->
  <measure number="289" width="250">
   <note default-x="15">
    <rest />
    <duration>1024</duration>
    <instrument id="P3-I1" />
    <voice>1</voice>
    <type>whole</type>
    <staff>1</staff>
   </note>
  </measure>
  <!--============== Part: P3, Measure: 290 ==============-->
  <measure number="290" width="250">
   <direction>
    <direction-type>
     <dynamics default-x="9" default-y="-77" color="#000000" font-family="Opus Text Std" font-style="normal" font-size="7.6735" font-weight="normal">
      <p />
     </dynamics>
    </direction-type>
    <voice>1</voice>
    <staff>1</staff>
   </direction>
   <note color="#000000" default-x="15" default-y="-62">
    <pitch>
     <step>F</step>
     <octave>4</octave>
    </pitch>
    <duration>256</duration>
    <instrument id="P3-I1" />
    <voice>1</voice>
    <type>quarter</type>
    <stem>down</stem>
    <staff>1</staff>
   </note>
   <note color="#000000" default-x="15">
    <chord />
    <pitch>
     <step>F</step>
     <octave>5</octave>
    </pitch>
    <duration>256</duration>
    <instrument id="P3-I1" />
    <type>quarter</type>
    <staff>1</staff>
   </note>
   <note color="#000000" default-x="67" default-y="-62">
    <pitch>
     <step>F</step>
     <octave>4</octave>
    </pitch>
    <duration>256</duration>
    <instrument id="P3-I1" />
    <voice>1</voice>
    <type>quarter</type>
    <stem>down</stem>
    <staff>1</staff>
   </note>
   <note color="#000000" default-x="67">
    <chord />
    <pitch>
     <step>F</step>
     <octave>5</octave>
    </pitch>
    <duration>256</duration>
    <instrument id="P3-I1" />
    <type>quarter</type>
    <staff>1</staff>
   </note>
   <note default-x="120">
    <rest />
    <duration>512</duration>
    <instrument id="P3-I1" />
    <voice>1</voice>
    <type>half</type>
    <staff>1</staff>
   </note>
  </measure>
  <!--============== Part: P3, Measure: 291 ==============-->
  <measure number="291" width="267">
   <note default-x="15">
    <rest />
    <duration>512</duration>
    <instrument id="P3-I1" />
    <voice>1</voice>
    <type>half</type>
    <staff>1</staff>
   </note>
   <direction>
    <direction-type>
     <words default-x="155" default-y="20" justify="left" valign="middle" font-family="Plantin MT Std" font-style="normal" font-size="7.6735" font-weight="normal">I.</words>
    </direction-type>
    <voice>1</voice>
    <staff>1</staff>
   </direction>
   <note color="#000000" default-x="161" default-y="-35">
    <pitch>
     <step>F</step>
     <octave>5</octave>
    </pitch>
    <duration>256</duration>
    <instrument id="P3-I1" />
    <voice>1</voice>
    <type>quarter</type>
    <stem>down</stem>
    <staff>1</staff>
   </note>
   <note color="#000000" default-x="214" default-y="-35">
    <pitch>
     <step>F</step>
     <octave>5</octave>
    </pitch>
    <duration>256</duration>
    <instrument id="P3-I1" />
    <voice>1</voice>
    <type>quarter</type>
    <stem>down</stem>
    <staff>1</staff>
   </note>
  </measure>
  <!--============== Part: P3, Measure: 292 ==============-->
  <measure number="292" width="250">
   <note default-x="15">
    <rest />
    <duration>1024</duration>
    <instrument id="P3-I1" />
    <voice>1</voice>
    <type>whole</type>
    <staff>1</staff>
   </note>
  </measure>
  <!--============== Part: P3, Measure: 293 ==============-->
  <measure number="293" width="266">
   <note default-x="15">
    <rest />
    <duration>1024</duration>
    <instrument id="P3-I1" />
    <voice>1</voice>
    <type>whole</type>
    <staff>1</staff>
   </note>
  </measure>
  <!--============== Part: P3, Measure: 294 ==============-->
  <measure number="294" width="226">
   <note default-x="15">
    <rest />
    <duration>1024</duration>
    <instrument id="P3-I1" />
    <voice>1</voice>
    <type>whole</type>
    <staff>1</staff>
   </note>
  </measure>
  <!--============== Part: P3, Measure: 295 ==============-->
  <measure number="295" width="226">
   <note default-x="15">
    <rest />
    <duration>1024</duration>
    <instrument id="P3-I1" />
    <voice>1</voice>
    <type>whole</type>
    <staff>1</staff>
   </note>
  </measure>
 </part>
 <part id="P4">
  <!--============== Part: P4, Measure: 288 ==============-->
  <measure number="288" width="333">
   <print new-page="yes">
    <system-layout>
     <system-margins>
      <left-margin>164</left-margin>
      <right-margin>0</right-margin>
     </system-margins>
    </system-layout>
    <staff-layout number="1">
     <staff-distance>137</staff-distance>
    </staff-layout>
   </print>
   <attributes>
    <divisions>256</divisions>
    <key color="#000000">
     <fifths>0</fifths>
     <mode>none</mode>
    </key>
    <time color="#000000">
     <beats>2</beats>
     <beat-type>2</beat-type>
    </time>
    <staves>1</staves>
    <clef number="1" color="#000000">
     <sign>G</sign>
     <line>2</line>
    </clef>
    <staff-details number="1" print-object="yes" />
    <transpose>
     <diatonic>-1</diatonic>
     <chromatic>-2</chromatic>
    </transpose>
   </attributes>
   <note default-x="75">
    <rest />
    <duration>512</duration>
    <instrument id="P4-I1" />
    <voice>1</voice>
    <type>half</type>
    <staff>1</staff>
   </note>
   <direction>
    <direction-type>
     <dynamics default-x="174" default-y="-75" color="#000000" font-family="Opus Text Std" font-style="normal" font-size="7.6735" font-weight="normal">
      <mp />
     </dynamics>
    </direction-type>
    <voice>1</voice>
    <staff>1</staff>
   </direction>
   <note color="#000000" default-x="180" default-y="-30">
    <pitch>
     <step>G</step>
     <octave>5</octave>
    </pitch>
    <duration>256</duration>
    <instrument id="P4-I1" />
    <voice>1</voice>
    <type>quarter</type>
    <stem>down</stem>
    <staff>1</staff>
   </note>
   <note color="#000000" default-x="274" default-y="-30">
    <pitch>
     <step>G</step>
     <octave>5</octave>
    </pitch>
    <duration>256</duration>
    <instrument id="P4-I1" />
    <voice>1</voice>
    <type>quarter</type>
    <stem>down</stem>
    <staff>1</staff>
   </note>
  </measure>
  <!--============== Part: P4, Measure: 289 ==============-->
  <measure number="289" width="250">
   <note default-x="15">
    <rest />
    <duration>1024</duration>
    <instrument id="P4-I1" />
    <voice>1</voice>
    <type>whole</type>
    <staff>1</staff>
   </note>
  </measure>
  <!--============== Part: P4, Measure: 290 ==============-->
  <measure number="290" width="250">
   <direction>
    <direction-type>
     <dynamics default-x="9" default-y="-75" color="#000000" font-family="Opus Text Std" font-style="normal" font-size="7.6735" font-weight="normal">
      <p />
     </dynamics>
    </direction-type>
    <voice>1</voice>
    <staff>1</staff>
   </direction>
   <note color="#000000" default-x="15" default-y="-60">
    <pitch>
     <step>G</step>
     <octave>4</octave>
    </pitch>
    <duration>256</duration>
    <instrument id="P4-I1" />
    <voice>1</voice>
    <type>quarter</type>
    <stem>down</stem>
    <staff>1</staff>
   </note>
   <note color="#000000" default-x="15">
    <chord />
    <pitch>
     <step>G</step>
     <octave>5</octave>
    </pitch>
    <duration>256</duration>
    <instrument id="P4-I1" />
    <type>quarter</type>
    <staff>1</staff>
   </note>
   <note color="#000000" default-x="67" default-y="-60">
    <pitch>
     <step>G</step>
     <octave>4</octave>
    </pitch>
    <duration>256</duration>
    <instrument id="P4-I1" />
    <voice>1</voice>
    <type>quarter</type>
    <stem>down</stem>
    <staff>1</staff>
   </note>
   <note color="#000000" default-x="67">
    <chord />
    <pitch>
     <step>G</step>
     <octave>5</octave>
    </pitch>
    <duration>256</duration>
    <instrument id="P4-I1" />
    <type>quarter</type>
    <staff>1</staff>
   </note>
   <note default-x="120">
    <rest />
    <duration>512</duration>
    <instrument id="P4-I1" />
    <voice>1</voice>
    <type>half</type>
    <staff>1</staff>
   </note>
  </measure>
  <!--============== Part: P4, Measure: 291 ==============-->
  <measure number="291" width="267">
   <note default-x="15">
    <rest />
    <duration>512</duration>
    <instrument id="P4-I1" />
    <voice>1</voice>
    <type>half</type>
    <staff>1</staff>
   </note>
   <direction>
    <direction-type>
     <words default-x="155" default-y="20" justify="left" valign="middle" font-family="Plantin MT Std" font-style="normal" font-size="7.6735" font-weight="normal">I.</words>
    </direction-type>
    <voice>1</voice>
    <staff>1</staff>
   </direction>
   <note color="#000000" default-x="161" default-y="-30">
    <pitch>
     <step>G</step>
     <octave>5</octave>
    </pitch>
    <duration>256</duration>
    <instrument id="P4-I1" />
    <voice>1</voice>
    <type>quarter</type>
    <stem>down</stem>
    <staff>1</staff>
   </note>
   <note color="#000000" default-x="214" default-y="-30">
    <pitch>
     <step>G</step>
     <octave>5</octave>
    </pitch>
    <duration>256</duration>
    <instrument id="P4-I1" />
    <voice>1</voice>
    <type>quarter</type>
    <stem>down</stem>
    <staff>1</staff>
   </note>
  </measure>
  <!--============== Part: P4, Measure: 292 ==============-->
  <measure number="292" width="250">
   <note default-x="15">
    <rest />
    <duration>1024</duration>
    <instrument id="P4-I1" />
    <voice>1</voice>
    <type>whole</type>
    <staff>1</staff>
   </note>
  </measure>
  <!--============== Part: P4, Measure: 293 ==============-->
  <measure number="293" width="266">
   <note default-x="15">
    <rest />
    <duration>1024</duration>
    <instrument id="P4-I1" />
    <voice>1</voice>
    <type>whole</type>
    <staff>1</staff>
   </note>
  </measure>
  <!--============== Part: P4, Measure: 294 ==============-->
  <measure number="294" width="226">
   <note default-x="15">
    <rest />
    <duration>1024</duration>
    <instrument id="P4-I1" />
    <voice>1</voice>
    <type>whole</type>
    <staff>1</staff>
   </note>
  </measure>
  <!--============== Part: P4, Measure: 295 ==============-->
  <measure number="295" width="226">
   <note default-x="15">
    <rest />
    <duration>1024</duration>
    <instrument id="P4-I1" />
    <voice>1</voice>
    <type>whole</type>
    <staff>1</staff>
   </note>
  </measure>
 </part>
 <part id="P5">
  <!--============== Part: P5, Measure: 288 ==============-->
  <measure number="288" width="333">
   <print new-page="yes">
    <system-layout>
     <system-margins>
      <left-margin>164</left-margin>
      <right-margin>0</right-margin>
     </system-margins>
    </system-layout>
    <staff-layout number="1">
     <staff-distance>167</staff-distance>
    </staff-layout>
   </print>
   <attributes>
    <divisions>256</divisions>
    <key color="#000000">
     <fifths>0</fifths>
     <mode>none</mode>
    </key>
    <time color="#000000">
     <beats>2</beats>
     <beat-type>2</beat-type>
    </time>
    <staves>1</staves>
    <clef number="1" color="#000000">
     <sign>F</sign>
     <line>4</line>
    </clef>
    <staff-details number="1" print-object="yes" />
   </attributes>
   <direction>
    <direction-type>
     <words default-x="69" default-y="-70" justify="left" valign="middle" font-family="Opus Text Std" font-style="normal" font-size="7.6735" font-weight="normal">[f]</words>
    </direction-type>
    <voice>1</voice>
    <staff>1</staff>
   </direction>
   <note color="#000000" default-x="75">
    <pitch>
     <step>A</step>
     <octave>2</octave>
    </pitch>
    <duration>256</duration>
    <instrument id="P5-I1" />
    <voice>1</voice>
    <type>quarter</type>
    <stem>up</stem>
    <staff>1</staff>
   </note>
   <note color="#000000" default-x="127">
    <pitch>
     <step>A</step>
     <octave>2</octave>
    </pitch>
    <duration>256</duration>
    <instrument id="P5-I1" />
    <voice>1</voice>
    <type>quarter</type>
    <stem>up</stem>
    <staff>1</staff>
   </note>
   <note default-x="180">
    <rest />
    <duration>512</duration>
    <instrument id="P5-I1" />
    <voice>1</voice>
    <type>half</type>
    <staff>1</staff>
   </note>
  </measure>
  <!--============== Part: P5, Measure: 289 ==============-->
  <measure number="289" width="250">
   <note color="#000000" default-x="15" default-y="-45">
    <pitch>
     <step>F</step>
     <octave>3</octave>
    </pitch>
    <duration>256</duration>
    <instrument id="P5-I1" />
    <voice>1</voice>
    <type>quarter</type>
    <stem>down</stem>
    <staff>1</staff>
   </note>
   <note color="#000000" default-x="67" default-y="12">
    <pitch>
     <step>D</step>
     <octave>3</octave>
    </pitch>
    <duration>128</duration>
    <instrument id="P5-I1" />
    <voice>1</voice>
    <type>eighth</type>
    <stem>up</stem>
    <staff>1</staff>
    <beam number="1">begin</beam>
   </note>
   <note color="#000000" default-x="106" default-y="12">
    <pitch>
     <step>C</step>
     <octave>3</octave>
    </pitch>
    <duration>128</duration>
    <instrument id="P5-I1" />
    <voice>1</voice>
    <type>eighth</type>
    <stem>up</stem>
    <staff>1</staff>
    <beam number="1">end</beam>
   </note>
   <note color="#000000" default-x="144">
    <pitch>
     <step>A</step>
     <octave>2</octave>
    </pitch>
    <duration>256</duration>
    <instrument id="P5-I1" />
    <voice>1</voice>
    <type>quarter</type>
    <stem>up</stem>
    <staff>1</staff>
   </note>
   <note color="#000000" default-x="197">
    <pitch>
     <step>A</step>
     <octave>2</octave>
    </pitch>
    <duration>256</duration>
    <instrument id="P5-I1" />
    <voice>1</voice>
    <type>quarter</type>
    <stem>up</stem>
    <staff>1</staff>
   </note>
  </measure>
  <!--============== Part: P5, Measure: 290 ==============-->
  <measure number="290" width="250">
   <note default-x="15">
    <rest />
    <duration>512</duration>
    <instrument id="P5-I1" />
    <voice>1</voice>
    <type>half</type>
    <staff>1</staff>
   </note>
   <direction>
    <direction-type>
     <dynamics default-x="115" default-y="-70" color="#000000" font-family="Opus Text Std" font-style="normal" font-size="7.6735" font-weight="normal">
      <mf />
     </dynamics>
    </direction-type>
    <voice>1</voice>
    <staff>1</staff>
   </direction>
   <direction>
    <direction-type>
     <words default-y="-70" relative-x="32" justify="left" valign="middle" font-family="Plantin MT Std" font-style="italic" font-size="7.6735" font-weight="normal"> dim.</words>
    </direction-type>
    <voice>1</voice>
    <staff>1</staff>
   </direction>
   <note color="#000000" default-x="120" default-y="-45">
    <pitch>
     <step>F</step>
     <octave>3</octave>
    </pitch>
    <duration>256</duration>
    <instrument id="P5-I1" />
    <voice>1</voice>
    <type>quarter</type>
    <stem>down</stem>
    <staff>1</staff>
   </note>
   <note color="#000000" default-x="173" default-y="12">
    <pitch>
     <step>D</step>
     <octave>3</octave>
    </pitch>
    <duration>128</duration>
    <instrument id="P5-I1" />
    <voice>1</voice>
    <type>eighth</type>
    <stem>up</stem>
    <staff>1</staff>
    <beam number="1">begin</beam>
   </note>
   <note color="#000000" default-x="211" default-y="12">
    <pitch>
     <step>C</step>
     <octave>3</octave>
    </pitch>
    <duration>128</duration>
    <instrument id="P5-I1" />
    <voice>1</voice>
    <type>eighth</type>
    <stem>up</stem>
    <staff>1</staff>
    <beam number="1">end</beam>
   </note>
  </measure>
  <!--============== Part: P5, Measure: 291 ==============-->
  <measure number="291" width="267">
   <note color="#000000" default-x="15">
    <pitch>
     <step>A</step>
     <octave>2</octave>
    </pitch>
    <duration>256</duration>
    <instrument id="P5-I1" />
    <voice>1</voice>
    <type>quarter</type>
    <stem>up</stem>
    <staff>1</staff>
   </note>
   <note color="#000000" default-x="108">
    <pitch>
     <step>A</step>
     <octave>2</octave>
    </pitch>
    <duration>256</duration>
    <instrument id="P5-I1" />
    <voice>1</voice>
    <type>quarter</type>
    <stem>up</stem>
    <staff>1</staff>
   </note>
   <note default-x="161">
    <rest />
    <duration>512</duration>
    <instrument id="P5-I1" />
    <voice>1</voice>
    <type>half</type>
    <staff>1</staff>
   </note>
  </measure>
  <!--============== Part: P5, Measure: 292 ==============-->
  <measure number="292" width="250">
   <note color="#000000" default-x="15" default-y="-45">
    <pitch>
     <step>F</step>
     <octave>3</octave>
    </pitch>
    <duration>256</duration>
    <instrument id="P5-I1" />
    <voice>1</voice>
    <type>quarter</type>
    <stem>down</stem>
    <staff>1</staff>
   </note>
   <note color="#000000" default-x="67" default-y="12">
    <pitch>
     <step>D</step>
     <octave>3</octave>
    </pitch>
    <duration>128</duration>
    <instrument id="P5-I1" />
    <voice>1</voice>
    <type>eighth</type>
    <stem>up</stem>
    <staff>1</staff>
    <beam number="1">begin</beam>
   </note>
   <note color="#000000" default-x="105" default-y="12">
    <pitch>
     <step>C</step>
     <octave>3</octave>
    </pitch>
    <duration>128</duration>
    <instrument id="P5-I1" />
    <voice>1</voice>
    <type>eighth</type>
    <stem>up</stem>
    <staff>1</staff>
    <beam number="1">end</beam>
   </note>
   <note color="#000000" default-x="144">
    <pitch>
     <step>A</step>
     <octave>2</octave>
    </pitch>
    <duration>256</duration>
    <instrument id="P5-I1" />
    <voice>1</voice>
    <type>quarter</type>
    <stem>up</stem>
    <staff>1</staff>
   </note>
   <note color="#000000" default-x="197">
    <pitch>
     <step>A</step>
     <octave>2</octave>
    </pitch>
    <duration>256</duration>
    <instrument id="P5-I1" />
    <voice>1</voice>
    <type>quarter</type>
    <stem>up</stem>
    <staff>1</staff>
   </note>
  </measure>
  <!--============== Part: P5, Measure: 293 ==============-->
  <measure number="293" width="266">
   <note default-x="15">
    <rest />
    <duration>1024</duration>
    <instrument id="P5-I1" />
    <voice>1</voice>
    <type>whole</type>
    <staff>1</staff>
   </note>
  </measure>
  <!--============== Part: P5, Measure: 294 ==============-->
  <measure number="294" width="226">
   <note default-x="15">
    <rest />
    <duration>1024</duration>
    <instrument id="P5-I1" />
    <voice>1</voice>
    <type>whole</type>
    <staff>1</staff>
   </note>
  </measure>
  <!--============== Part: P5, Measure: 295 ==============-->
  <measure number="295" width="226">
   <note default-x="15">
    <rest />
    <duration>1024</duration>
    <instrument id="P5-I1" />
    <voice>1</voice>
    <type>whole</type>
    <staff>1</staff>
   </note>
  </measure>
 </part>
 <part id="P6">
  <!--============== Part: P6, Measure: 288 ==============-->
  <measure number="288" width="333">
   <print new-page="yes">
    <system-layout>
     <system-margins>
      <left-margin>164</left-margin>
      <right-margin>0</right-margin>
     </system-margins>
    </system-layout>
    <staff-layout number="1">
     <staff-distance>167</staff-distance>
    </staff-layout>
   </print>
   <attributes>
    <divisions>256</divisions>
    <key color="#000000">
     <fifths>0</fifths>
     <mode>none</mode>
    </key>
    <time color="#000000">
     <beats>2</beats>
     <beat-type>2</beat-type>
    </time>
    <staves>1</staves>
    <clef number="1" color="#000000">
     <sign>G</sign>
     <line>2</line>
    </clef>
    <staff-details number="1" print-object="yes" />
   </attributes>
   <direction>
    <direction-type>
     <words default-x="69" default-y="-70" justify="left" valign="middle" font-family="Opus Text Std" font-style="normal" font-size="7.6735" font-weight="normal">[f]</words>
    </direction-type>
    <voice>1</voice>
    <staff>1</staff>
   </direction>
   <direction>
    <direction-type>
     <words default-x="69" default-y="20" justify="left" valign="middle" font-family="Plantin MT Std" font-style="normal" font-size="7.6735" font-weight="normal">[Glocken]</words>
    </direction-type>
    <voice>1</voice>
    <staff>1</staff>
   </direction>
   <direction>
    <direction-type>
     <metronome default-y="47" color="#000000" font-family="Opus Text Std" font-style="normal" font-size="7.6735" font-weight="normal">
      <beat-unit>quarter</beat-unit>
      <per-minute>132</per-minute>
     </metronome>
    </direction-type>
    <voice>1</voice>
    <staff>1</staff>
   </direction>
   <note color="#000000" default-x="75">
    <pitch>
     <step>F</step>
     <octave>4</octave>
    </pitch>
    <duration>1024</duration>
    <instrument id="P6-I1" />
    <voice>1</voice>
    <type>whole</type>
    <staff>1</staff>
   </note>
  </measure>
  <!--============== Part: P6, Measure: 289 ==============-->
  <measure number="289" width="250">
   <note color="#000000" default-x="15">
    <pitch>
     <step>D</step>
     <octave>4</octave>
    </pitch>
    <duration>1024</duration>
    <instrument id="P6-I1" />
    <voice>1</voice>
    <type>whole</type>
    <staff>1</staff>
   </note>
  </measure>
  <!--============== Part: P6, Measure: 290 ==============-->
  <measure number="290" width="250">
   <note color="#000000" default-x="15">
    <pitch>
     <step>C</step>
     <octave>4</octave>
    </pitch>
    <duration>1024</duration>
    <tie type="start" />
    <instrument id="P6-I1" />
    <voice>1</voice>
    <type>whole</type>
    <staff>1</staff>
    <notations>
     <tied type="start" orientation="under" />
    </notations>
   </note>
  </measure>
  <!--============== Part: P6, Measure: 291 ==============-->
  <measure number="291" width="267">
   <direction>
    <direction-type>
     <dynamics default-x="9" default-y="-90" color="#000000" font-family="Opus Text Std" font-style="normal" font-size="7.6735" font-weight="normal">
      <mf />
     </dynamics>
    </direction-type>
    <voice>1</voice>
    <staff>1</staff>
   </direction>
   <direction>
    <direction-type>
     <words default-y="-90" relative-x="32" justify="left" valign="middle" font-family="Plantin MT Std" font-style="italic" font-size="7.6735" font-weight="normal"> dim.</words>
    </direction-type>
    <voice>1</voice>
    <staff>1</staff>
   </direction>
   <note color="#000000" default-x="15" default-y="-15">
    <pitch>
     <step>C</step>
     <octave>4</octave>
    </pitch>
    <duration>512</duration>
    <tie type="stop" />
    <instrument id="P6-I1" />
    <voice>1</voice>
    <type>half</type>
    <stem>up</stem>
    <staff>1</staff>
    <notations>
     <tied type="stop" orientation="under" />
    </notations>
   </note>
   <note color="#000000" default-x="161" default-y="-20">
    <pitch>
     <step>A</step>
     <octave>3</octave>
    </pitch>
    <duration>512</duration>
    <tie type="start" />
    <instrument id="P6-I1" />
    <voice>1</voice>
    <type>half</type>
    <stem>up</stem>
    <staff>1</staff>
    <notations>
     <tied type="start" orientation="under" />
    </notations>
   </note>
  </measure>
  <!--============== Part: P6, Measure: 292 ==============-->
  <measure number="292" width="250">
   <note color="#000000" default-x="15" default-y="-20">
    <pitch>
     <step>A</step>
     <octave>3</octave>
    </pitch>
    <duration>512</duration>
    <tie type="stop" />
    <instrument id="P6-I1" />
    <voice>1</voice>
    <type>half</type>
    <stem>up</stem>
    <staff>1</staff>
    <notations>
     <tied type="stop" orientation="under" />
    </notations>
   </note>
   <note color="#000000" default-x="144">
    <pitch>
     <step>F</step>
     <octave>4</octave>
    </pitch>
    <duration>512</duration>
    <tie type="start" />
    <instrument id="P6-I1" />
    <voice>1</voice>
    <type>half</type>
    <stem>up</stem>
    <staff>1</staff>
    <notations>
     <tied type="start" orientation="under" />
    </notations>
   </note>
  </measure>
  <!--============== Part: P6, Measure: 293 ==============-->
  <measure number="293" width="266">
   <note color="#000000" default-x="15">
    <pitch>
     <step>F</step>
     <octave>4</octave>
    </pitch>
    <duration>512</duration>
    <tie type="stop" />
    <instrument id="P6-I1" />
    <voice>1</voice>
    <type>half</type>
    <stem>up</stem>
    <staff>1</staff>
    <notations>
     <tied type="stop" orientation="under" />
    </notations>
   </note>
   <note color="#000000" default-x="120" default-y="-10">
    <pitch>
     <step>D</step>
     <octave>4</octave>
    </pitch>
    <duration>512</duration>
    <tie type="start" />
    <instrument id="P6-I1" />
    <voice>1</voice>
    <type>half</type>
    <stem>up</stem>
    <staff>1</staff>
    <notations>
     <tied type="start" orientation="under" />
    </notations>
   </note>
  </measure>
  <!--============== Part: P6, Measure: 294 ==============-->
  <measure number="294" width="226">
   <note color="#000000" default-x="15" default-y="-10">
    <pitch>
     <step>D</step>
     <octave>4</octave>
    </pitch>
    <duration>512</duration>
    <tie type="stop" />
    <instrument id="P6-I1" />
    <voice>1</voice>
    <type>half</type>
    <stem>up</stem>
    <staff>1</staff>
    <notations>
     <tied type="stop" orientation="under" />
    </notations>
   </note>
   <note color="#000000" default-x="120" default-y="-15">
    <pitch>
     <step>C</step>
     <octave>4</octave>
    </pitch>
    <duration>512</duration>
    <tie type="start" />
    <instrument id="P6-I1" />
    <voice>1</voice>
    <type>half</type>
    <stem>up</stem>
    <staff>1</staff>
    <notations>
     <tied type="start" orientation="under" />
    </notations>
   </note>
  </measure>
  <!--============== Part: P6, Measure: 295 ==============-->
  <measure number="295" width="226">
   <note color="#000000" default-x="15" default-y="-15">
    <pitch>
     <step>C</step>
     <octave>4</octave>
    </pitch>
    <duration>512</duration>
    <tie type="stop" />
    <instrument id="P6-I1" />
    <voice>1</voice>
    <type>half</type>
    <stem>up</stem>
    <staff>1</staff>
    <notations>
     <tied type="stop" orientation="under" />
    </notations>
   </note>
   <note color="#000000" default-x="120" default-y="-20">
    <pitch>
     <step>A</step>
     <octave>3</octave>
    </pitch>
    <duration>512</duration>
    <tie type="start" />
    <instrument id="P6-I1" />
    <voice>1</voice>
    <type>half</type>
    <stem>up</stem>
    <staff>1</staff>
    <notations>
     <tied type="start" orientation="under" />
    </notations>
   </note>
  </measure>
 </part>
 <part id="P7">
  <!--============== Part: P7, Measure: 288 ==============-->
  <measure number="288" width="333">
   <print new-page="yes">
    <system-layout>
     <system-margins>
      <left-margin>164</left-margin>
      <right-margin>0</right-margin>
     </system-margins>
    </system-layout>
    <staff-layout number="1">
     <staff-distance>137</staff-distance>
    </staff-layout>
   </print>
   <attributes>
    <divisions>256</divisions>
    <key color="#000000">
     <fifths>0</fifths>
     <mode>major</mode>
    </key>
    <time color="#000000">
     <beats>2</beats>
     <beat-type>2</beat-type>
    </time>
    <staves>1</staves>
    <clef number="1" color="#000000">
     <sign>G</sign>
     <line>2</line>
    </clef>
    <staff-details number="1" print-object="yes" />
   </attributes>
   <direction>
    <direction-type>
     <words default-x="69" default-y="-111" justify="left" valign="middle" font-family="Plantin MT Std" font-style="normal" font-size="7.6735" font-weight="normal">[Tom-tom]</words>
    </direction-type>
    <voice>1</voice>
    <staff>1</staff>
   </direction>
   <direction>
    <direction-type>
     <words default-x="69" default-y="-81" justify="left" valign="middle" font-family="Opus Text Std" font-style="normal" font-size="7.6735" font-weight="normal">[f]</words>
    </direction-type>
    <voice>1</voice>
    <staff>1</staff>
   </direction>
   <note color="#000000" default-x="75" default-y="-60">
    <unpitched>
     <display-step>G</display-step>
     <display-octave>4</display-octave>
    </unpitched>
    <duration>256</duration>
    <instrument id="P7-I1" />
    <voice>1</voice>
    <type>quarter</type>
    <stem>down</stem>
    <staff>1</staff>
   </note>
   <note default-x="127">
    <rest />
    <duration>256</duration>
    <instrument id="P7-I1" />
    <voice>1</voice>
    <type>quarter</type>
    <staff>1</staff>
   </note>
   <direction>
    <direction-type>
     <words default-x="174" default-y="13" justify="left" valign="middle" font-family="Plantin MT Std" font-style="normal" font-size="7.6735" font-weight="normal">*Xtuplet</words>
    </direction-type>
    <voice>1</voice>
    <staff>1</staff>
   </direction>
   <note color="#000000" default-x="180" default-y="-59">
    <unpitched>
     <display-step>G</display-step>
     <display-octave>4</display-octave>
    </unpitched>
    <duration>85</duration>
    <instrument id="P7-I1" />
    <voice>1</voice>
    <type>eighth</type>
    <time-modification>
     <actual-notes>3</actual-notes>
     <normal-notes>2</normal-notes>
     <normal-type>eighth</normal-type>
    </time-modification>
    <stem>down</stem>
    <staff>1</staff>
    <beam number="1">begin</beam>
    <notations>
     <tuplet type="start" bracket="no" number="1" default-y="-20" placement="below" />
    </notations>
   </note>
   <note color="#000000" default-x="211" default-y="-59">
    <unpitched>
     <display-step>G</display-step>
     <display-octave>4</display-octave>
    </unpitched>
    <duration>85</duration>
    <instrument id="P7-I1" />
    <voice>1</voice>
    <type>eighth</type>
    <time-modification>
     <actual-notes>3</actual-notes>
     <normal-notes>2</normal-notes>
     <normal-type>eighth</normal-type>
    </time-modification>
    <stem>down</stem>
    <staff>1</staff>
    <beam number="1">continue</beam>
   </note>
   <note color="#000000" default-x="243" default-y="-59">
    <unpitched>
     <display-step>G</display-step>
     <display-octave>4</display-octave>
    </unpitched>
    <duration>86</duration>
    <instrument id="P7-I1" />
    <voice>1</voice>
    <type>eighth</type>
    <time-modification>
     <actual-notes>3</actual-notes>
     <normal-notes>2</normal-notes>
     <normal-type>eighth</normal-type>
    </time-modification>
    <stem>down</stem>
    <staff>1</staff>
    <beam number="1">end</beam>
    <notations>
     <tuplet type="stop" bracket="no" number="1" default-y="-20" placement="below" />
    </notations>
   </note>
   <note color="#000000" default-x="274" default-y="-60">
    <unpitched>
     <display-step>G</display-step>
     <display-octave>4</display-octave>
    </unpitched>
    <duration>256</duration>
    <instrument id="P7-I1" />
    <voice>1</voice>
    <type>quarter</type>
    <stem>down</stem>
    <staff>1</staff>
   </note>
  </measure>
  <!--============== Part: P7, Measure: 289 ==============-->
  <measure number="289" width="250">
   <note color="#000000" default-x="15" default-y="-60">
    <unpitched>
     <display-step>G</display-step>
     <display-octave>4</display-octave>
    </unpitched>
    <duration>256</duration>
    <instrument id="P7-I1" />
    <voice>1</voice>
    <type>quarter</type>
    <stem>down</stem>
    <staff>1</staff>
   </note>
   <note default-x="67">
    <rest />
    <duration>256</duration>
    <instrument id="P7-I1" />
    <voice>1</voice>
    <type>quarter</type>
    <staff>1</staff>
   </note>
   <direction>
    <direction-type>
     <words default-x="138" default-y="31" justify="left" valign="middle" font-family="Plantin MT Std" font-style="normal" font-size="7.6735" font-weight="normal">[Triangel]</words>
    </direction-type>
    <voice>1</voice>
    <staff>1</staff>
   </direction>
   <note color="#000000" default-x="144" default-y="22">
    <unpitched>
     <display-step>E</display-step>
     <display-octave>5</display-octave>
    </unpitched>
    <duration>256</duration>
    <instrument id="P7-I1" />
    <voice>1</voice>
    <type>quarter</type>
    <stem>up</stem>
    <staff>1</staff>
   </note>
   <note color="#000000" default-x="197" default-y="22">
    <unpitched>
     <display-step>E</display-step>
     <display-octave>5</display-octave>
    </unpitched>
    <duration>256</duration>
    <instrument id="P7-I1" />
    <voice>1</voice>
    <type>quarter</type>
    <stem>up</stem>
    <staff>1</staff>
   </note>
  </measure>
  <!--============== Part: P7, Measure: 290 ==============-->
  <measure number="290" width="250">
   <note default-x="15">
    <rest />
    <duration>256</duration>
    <instrument id="P7-I1" />
    <voice>1</voice>
    <type>quarter</type>
    <staff>1</staff>
   </note>
   <note color="#000000" default-x="67" default-y="22">
    <unpitched>
     <display-step>E</display-step>
     <display-octave>5</display-octave>
    </unpitched>
    <duration>256</duration>
    <instrument id="P7-I1" />
    <voice>1</voice>
    <type>quarter</type>
    <stem>up</stem>
    <staff>1</staff>
   </note>
   <direction>
    <direction-type>
     <dynamics default-x="115" default-y="-81" color="#000000" font-family="Opus Text Std" font-style="normal" font-size="7.6735" font-weight="normal">
      <mf />
     </dynamics>
    </direction-type>
    <voice>1</voice>
    <staff>1</staff>
   </direction>
   <direction>
    <direction-type>
     <words default-y="-81" relative-x="32" justify="left" valign="middle" font-family="Plantin MT Std" font-style="italic" font-size="7.6735" font-weight="normal"> dim.</words>
    </direction-type>
    <voice>1</voice>
    <staff>1</staff>
   </direction>
   <note color="#000000" default-x="120" default-y="-60">
    <unpitched>
     <display-step>G</display-step>
     <display-octave>4</display-octave>
    </unpitched>
    <duration>256</duration>
    <instrument id="P7-I1" />
    <voice>1</voice>
    <type>quarter</type>
    <stem>down</stem>
    <staff>1</staff>
   </note>
   <note default-x="173">
    <rest />
    <duration>256</duration>
    <instrument id="P7-I1" />
    <voice>1</voice>
    <type>quarter</type>
    <staff>1</staff>
   </note>
  </measure>
  <!--============== Part: P7, Measure: 291 ==============-->
  <measure number="291" width="267">
   <note color="#000000" default-x="15" default-y="-59">
    <unpitched>
     <display-step>G</display-step>
     <display-octave>4</display-octave>
    </unpitched>
    <duration>85</duration>
    <instrument id="P7-I1" />
    <voice>1</voice>
    <type>eighth</type>
    <time-modification>
     <actual-notes>3</actual-notes>
     <normal-notes>2</normal-notes>
     <normal-type>eighth</normal-type>
    </time-modification>
    <stem>down</stem>
    <staff>1</staff>
    <beam number="1">begin</beam>
    <notations>
     <tuplet type="start" bracket="no" number="1" default-y="-20" placement="below" />
    </notations>
   </note>
   <note color="#000000" default-x="46" default-y="-59">
    <unpitched>
     <display-step>G</display-step>
     <display-octave>4</display-octave>
    </unpitched>
    <duration>85</duration>
    <instrument id="P7-I1" />
    <voice>1</voice>
    <type>eighth</type>
    <time-modification>
     <actual-notes>3</actual-notes>
     <normal-notes>2</normal-notes>
     <normal-type>eighth</normal-type>
    </time-modification>
    <stem>down</stem>
    <staff>1</staff>
    <beam number="1">continue</beam>
   </note>
   <note color="#000000" default-x="77" default-y="-59">
    <unpitched>
     <display-step>G</display-step>
     <display-octave>4</display-octave>
    </unpitched>
    <duration>86</duration>
    <instrument id="P7-I1" />
    <voice>1</voice>
    <type>eighth</type>
    <time-modification>
     <actual-notes>3</actual-notes>
     <normal-notes>2</normal-notes>
     <normal-type>eighth</normal-type>
    </time-modification>
    <stem>down</stem>
    <staff>1</staff>
    <beam number="1">end</beam>
    <notations>
     <tuplet type="stop" bracket="no" number="1" default-y="-20" placement="below" />
    </notations>
   </note>
   <note color="#000000" default-x="108" default-y="-60">
    <unpitched>
     <display-step>G</display-step>
     <display-octave>4</display-octave>
    </unpitched>
    <duration>256</duration>
    <instrument id="P7-I1" />
    <voice>1</voice>
    <type>quarter</type>
    <stem>down</stem>
    <staff>1</staff>
   </note>
   <note color="#000000" default-x="161" default-y="-60">
    <unpitched>
     <display-step>G</display-step>
     <display-octave>4</display-octave>
    </unpitched>
    <duration>256</duration>
    <instrument id="P7-I1" />
    <voice>1</voice>
    <type>quarter</type>
    <stem>down</stem>
    <staff>1</staff>
   </note>
   <note default-x="214">
    <rest />
    <duration>256</duration>
    <instrument id="P7-I1" />
    <voice>1</voice>
    <type>quarter</type>
    <staff>1</staff>
   </note>
  </measure>
  <!--============== Part: P7, Measure: 292 ==============-->
  <measure number="292" width="250">
   <note color="#000000" default-x="15" default-y="22">
    <unpitched>
     <display-step>E</display-step>
     <display-octave>5</display-octave>
    </unpitched>
    <duration>256</duration>
    <instrument id="P7-I1" />
    <voice>1</voice>
    <type>quarter</type>
    <stem>up</stem>
    <staff>1</staff>
   </note>
   <note color="#000000" default-x="67" default-y="22">
    <unpitched>
     <display-step>E</display-step>
     <display-octave>5</display-octave>
    </unpitched>
    <duration>256</duration>
    <instrument id="P7-I1" />
    <voice>1</voice>
    <type>quarter</type>
    <stem>up</stem>
    <staff>1</staff>
   </note>
   <note default-x="144">
    <rest />
    <duration>256</duration>
    <instrument id="P7-I1" />
    <voice>1</voice>
    <type>quarter</type>
    <staff>1</staff>
   </note>
   <note color="#000000" default-x="197" default-y="22">
    <unpitched>
     <display-step>E</display-step>
     <display-octave>5</display-octave>
    </unpitched>
    <duration>256</duration>
    <instrument id="P7-I1" />
    <voice>1</voice>
    <type>quarter</type>
    <stem>up</stem>
    <staff>1</staff>
   </note>
  </measure>
  <!--============== Part: P7, Measure: 293 ==============-->
  <measure number="293" width="266">
   <note color="#000000" default-x="15" default-y="-60">
    <unpitched>
     <display-step>G</display-step>
     <display-octave>4</display-octave>
    </unpitched>
    <duration>256</duration>
    <instrument id="P7-I1" />
    <voice>1</voice>
    <type>quarter</type>
    <stem>down</stem>
    <staff>1</staff>
   </note>
   <note default-x="67">
    <rest />
    <duration>256</duration>
    <instrument id="P7-I1" />
    <voice>1</voice>
    <type>quarter</type>
    <staff>1</staff>
   </note>
   <note color="#000000" default-x="120" default-y="-59">
    <unpitched>
     <display-step>G</display-step>
     <display-octave>4</display-octave>
    </unpitched>
    <duration>85</duration>
    <instrument id="P7-I1" />
    <voice>1</voice>
    <type>eighth</type>
    <time-modification>
     <actual-notes>3</actual-notes>
     <normal-notes>2</normal-notes>
     <normal-type>eighth</normal-type>
    </time-modification>
    <stem>down</stem>
    <staff>1</staff>
    <beam number="1">begin</beam>
    <notations>
     <tuplet type="start" bracket="no" number="1" default-y="-20" placement="below" />
    </notations>
   </note>
   <note color="#000000" default-x="151" default-y="-59">
    <unpitched>
     <display-step>G</display-step>
     <display-octave>4</display-octave>
    </unpitched>
    <duration>85</duration>
    <instrument id="P7-I1" />
    <voice>1</voice>
    <type>eighth</type>
    <time-modification>
     <actual-notes>3</actual-notes>
     <normal-notes>2</normal-notes>
     <normal-type>eighth</normal-type>
    </time-modification>
    <stem>down</stem>
    <staff>1</staff>
    <beam number="1">continue</beam>
   </note>
   <note color="#000000" default-x="182" default-y="-59">
    <unpitched>
     <display-step>G</display-step>
     <display-octave>4</display-octave>
    </unpitched>
    <duration>86</duration>
    <instrument id="P7-I1" />
    <voice>1</voice>
    <type>eighth</type>
    <time-modification>
     <actual-notes>3</actual-notes>
     <normal-notes>2</normal-notes>
     <normal-type>eighth</normal-type>
    </time-modification>
    <stem>down</stem>
    <staff>1</staff>
    <beam number="1">end</beam>
    <notations>
     <tuplet type="stop" bracket="no" number="1" default-y="-20" placement="below" />
    </notations>
   </note>
   <note color="#000000" default-x="214" default-y="-60">
    <unpitched>
     <display-step>G</display-step>
     <display-octave>4</display-octave>
    </unpitched>
    <duration>256</duration>
    <instrument id="P7-I1" />
    <voice>1</voice>
    <type>quarter</type>
    <stem>down</stem>
    <staff>1</staff>
   </note>
  </measure>
  <!--============== Part: P7, Measure: 294 ==============-->
  <measure number="294" width="226">
   <note color="#000000" default-x="15" default-y="-60">
    <unpitched>
     <display-step>G</display-step>
     <display-octave>4</display-octave>
    </unpitched>
    <duration>256</duration>
    <instrument id="P7-I1" />
    <voice>1</voice>
    <type>quarter</type>
    <stem>down</stem>
    <staff>1</staff>
   </note>
   <note default-x="67">
    <rest />
    <duration>256</duration>
    <instrument id="P7-I1" />
    <voice>1</voice>
    <type>quarter</type>
    <staff>1</staff>
   </note>
   <note color="#000000" default-x="120" default-y="22">
    <unpitched>
     <display-step>E</display-step>
     <display-octave>5</display-octave>
    </unpitched>
    <duration>256</duration>
    <instrument id="P7-I1" />
    <voice>1</voice>
    <type>quarter</type>
    <stem>up</stem>
    <staff>1</staff>
   </note>
   <note color="#000000" default-x="173" default-y="22">
    <unpitched>
     <display-step>E</display-step>
     <display-octave>5</display-octave>
    </unpitched>
    <duration>256</duration>
    <instrument id="P7-I1" />
    <voice>1</voice>
    <type>quarter</type>
    <stem>up</stem>
    <staff>1</staff>
   </note>
  </measure>
  <!--============== Part: P7, Measure: 295 ==============-->
  <measure number="295" width="226">
   <note default-x="15">
    <rest />
    <duration>256</duration>
    <instrument id="P7-I1" />
    <voice>1</voice>
    <type>quarter</type>
    <staff>1</staff>
   </note>
   <note color="#000000" default-x="67" default-y="22">
    <unpitched>
     <display-step>E</display-step>
     <display-octave>5</display-octave>
    </unpitched>
    <duration>256</duration>
    <instrument id="P7-I1" />
    <voice>1</voice>
    <type>quarter</type>
    <stem>up</stem>
    <staff>1</staff>
   </note>
   <note color="#000000" default-x="120" default-y="-60">
    <unpitched>
     <display-step>G</display-step>
     <display-octave>4</display-octave>
    </unpitched>
    <duration>256</duration>
    <instrument id="P7-I1" />
    <voice>1</voice>
    <type>quarter</type>
    <stem>down</stem>
    <staff>1</staff>
   </note>
   <note default-x="173">
    <rest />
    <duration>256</duration>
    <instrument id="P7-I1" />
    <voice>1</voice>
    <type>quarter</type>
    <staff>1</staff>
   </note>
  </measure>
 </part>
 <part id="P8">
  <!--============== Part: P8, Measure: 288 ==============-->
  <measure number="288" width="333">
   <print new-page="yes">
    <system-layout>
     <system-margins>
      <left-margin>164</left-margin>
      <right-margin>0</right-margin>
     </system-margins>
    </system-layout>
    <staff-layout number="1">
     <staff-distance>137</staff-distance>
    </staff-layout>
   </print>
   <attributes>
    <divisions>256</divisions>
    <key color="#000000">
     <fifths>0</fifths>
     <mode>major</mode>
    </key>
    <time color="#000000">
     <beats>2</beats>
     <beat-type>2</beat-type>
    </time>
    <staves>1</staves>
    <clef number="1" color="#000000">
     <sign>G</sign>
     <line>2</line>
    </clef>
    <staff-details number="1" print-object="yes" />
   </attributes>
   <direction>
    <direction-type>
     <words default-x="69" default-y="-70" justify="left" valign="middle" font-family="Opus Text Std" font-style="normal" font-size="7.6735" font-weight="normal">[f]</words>
    </direction-type>
    <voice>1</voice>
    <staff>1</staff>
   </direction>
   <direction>
    <direction-type>
     <words default-x="69" default-y="20" justify="left" valign="middle" font-family="Plantin MT Std" font-style="normal" font-size="7.6735" font-weight="normal">[Holzblock]</words>
    </direction-type>
    <voice>1</voice>
    <staff>1</staff>
   </direction>
   <note color="#000000" default-x="75" default-y="10">
    <unpitched>
     <display-step>A</display-step>
     <display-octave>4</display-octave>
    </unpitched>
    <duration>256</duration>
    <instrument id="P8-I1" />
    <voice>1</voice>
    <type>quarter</type>
    <stem>up</stem>
    <staff>1</staff>
   </note>
   <note default-x="127">
    <rest />
    <duration>256</duration>
    <instrument id="P8-I1" />
    <voice>1</voice>
    <type>quarter</type>
    <staff>1</staff>
   </note>
   <note default-x="180">
    <rest />
    <duration>256</duration>
    <instrument id="P8-I1" />
    <voice>1</voice>
    <type>quarter</type>
    <staff>1</staff>
   </note>
   <note color="#000000" default-x="274" default-y="10">
    <unpitched>
     <display-step>A</display-step>
     <display-octave>4</display-octave>
    </unpitched>
    <duration>256</duration>
    <instrument id="P8-I1" />
    <voice>1</voice>
    <type>quarter</type>
    <stem>up</stem>
    <staff>1</staff>
   </note>
  </measure>
  <!--============== Part: P8, Measure: 289 ==============-->
  <measure number="289" width="250">
   <note default-x="15">
    <rest />
    <duration>512</duration>
    <instrument id="P8-I1" />
    <voice>1</voice>
    <type>half</type>
    <staff>1</staff>
   </note>
   <direction>
    <direction-type>
     <words default-x="120" default-y="20" justify="left" valign="middle" font-family="Plantin MT Std" font-style="normal" font-size="7.6735" font-weight="normal">[Kl. Becken]</words>
    </direction-type>
    <voice>1</voice>
    <staff>1</staff>
   </direction>
   <direction>
    <direction-type>
     <words default-x="191" default-y="-98" justify="left" valign="middle" font-family="Plantin MT Std" font-style="normal" font-size="7.6735" font-weight="normal">[Kl. Gong]</words>
    </direction-type>
    <offset sound="no">256</offset>
    <voice>1</voice>
    <staff>1</staff>
   </direction>
   <note color="#000000" default-x="144">
    <unpitched>
     <display-step>F</display-step>
     <display-octave>4</display-octave>
    </unpitched>
    <duration>512</duration>
    <tie type="start" />
    <instrument id="P8-I1" />
    <voice>1</voice>
    <type>half</type>
    <stem>up</stem>
    <staff>1</staff>
    <notations>
     <tied type="start" orientation="over" />
    </notations>
   </note>
   <backup>
    <duration>512</duration>
   </backup>
   <note default-x="144">
    <rest />
    <duration>256</duration>
    <instrument id="P8-I1" />
    <voice>2</voice>
    <type>quarter</type>
    <staff>1</staff>
   </note>
   <note color="#000000" default-x="197" default-y="-67">
    <unpitched>
     <display-step>E</display-step>
     <display-octave>4</display-octave>
    </unpitched>
    <duration>256</duration>
    <tie type="start" />
    <instrument id="P8-I1" />
    <voice>2</voice>
    <type>quarter</type>
    <stem>down</stem>
    <staff>1</staff>
    <notations>
     <tied type="start" orientation="under" />
    </notations>
   </note>
  </measure>
  <!--============== Part: P8, Measure: 290 ==============-->
  <measure number="290" width="250">
   <note default-x="15">
    <rest />
    <duration>256</duration>
    <instrument id="P8-I1" />
    <voice>1</voice>
    <type>quarter</type>
    <staff>1</staff>
   </note>
   <note color="#000000" default-x="67" default-y="10">
    <unpitched>
     <display-step>A</display-step>
     <display-octave>4</display-octave>
    </unpitched>
    <duration>256</duration>
    <instrument id="P8-I1" />
    <voice>1</voice>
    <type>quarter</type>
    <stem>up</stem>
    <staff>1</staff>
   </note>
   <note color="#000000" default-x="120" default-y="10">
    <unpitched>
     <display-step>A</display-step>
     <display-octave>4</display-octave>
    </unpitched>
    <duration>256</duration>
    <instrument id="P8-I1" />
    <voice>1</voice>
    <type>quarter</type>
    <stem>up</stem>
    <staff>1</staff>
   </note>
   <note default-x="173">
    <rest />
    <duration>256</duration>
    <instrument id="P8-I1" />
    <voice>1</voice>
    <type>quarter</type>
    <staff>1</staff>
   </note>
   <backup>
    <duration>1024</duration>
   </backup>
   <note color="#000000" default-x="15">
    <unpitched>
     <display-step>E</display-step>
     <display-octave>4</display-octave>
    </unpitched>
    <duration>1024</duration>
    <tie type="stop" />
    <instrument id="P8-I1" />
    <voice>2</voice>
    <type>whole</type>
    <staff>1</staff>
    <notations>
     <tied type="stop" orientation="under" />
    </notations>
   </note>
  </measure>
  <!--============== Part: P8, Measure: 291 ==============-->
  <measure number="291" width="267">
   <note default-x="15">
    <rest />
    <duration>256</duration>
    <instrument id="P8-I1" />
    <voice>1</voice>
    <type>quarter</type>
    <staff>1</staff>
   </note>
   <direction>
    <direction-type>
     <dynamics default-x="102" default-y="-70" color="#000000" font-family="Opus Text Std" font-style="normal" font-size="7.6735" font-weight="normal">
      <mf />
     </dynamics>
    </direction-type>
    <voice>1</voice>
    <staff>1</staff>
   </direction>
   <direction>
    <direction-type>
     <words default-y="-70" relative-x="32" justify="left" valign="middle" font-family="Plantin MT Std" font-style="italic" font-size="7.6735" font-weight="normal"> dim.</words>
    </direction-type>
    <voice>1</voice>
    <staff>1</staff>
   </direction>
   <note color="#000000" default-x="108" default-y="10">
    <unpitched>
     <display-step>A</display-step>
     <display-octave>4</display-octave>
    </unpitched>
    <duration>256</duration>
    <instrument id="P8-I1" />
    <voice>1</voice>
    <type>quarter</type>
    <stem>up</stem>
    <staff>1</staff>
   </note>
   <note default-x="161">
    <rest />
    <duration>512</duration>
    <instrument id="P8-I1" />
    <voice>1</voice>
    <type>half</type>
    <staff>1</staff>
   </note>
  </measure>
  <!--============== Part: P8, Measure: 292 ==============-->
  <measure number="292" width="250">
   <note default-x="15">
    <rest />
    <duration>512</duration>
    <instrument id="P8-I1" />
    <voice>1</voice>
    <type>half</type>
    <staff>1</staff>
   </note>
   <note default-x="144">
    <rest />
    <duration>256</duration>
    <instrument id="P8-I1" />
    <voice>1</voice>
    <type>quarter</type>
    <staff>1</staff>
   </note>
   <note color="#000000" default-x="197" default-y="10">
    <unpitched>
     <display-step>A</display-step>
     <display-octave>4</display-octave>
    </unpitched>
    <duration>256</duration>
    <instrument id="P8-I1" />
    <voice>1</voice>
    <type>quarter</type>
    <stem>up</stem>
    <staff>1</staff>
   </note>
   <backup>
    <duration>1024</duration>
   </backup>
   <note color="#000000" default-x="15">
    <unpitched>
     <display-step>F</display-step>
     <display-octave>4</display-octave>
    </unpitched>
    <duration>1024</duration>
    <instrument id="P8-I1" />
    <voice>2</voice>
    <type>whole</type>
    <staff>1</staff>
   </note>
   <backup>
    <duration>1024</duration>
   </backup>
   <note default-x="15">
    <rest />
    <duration>256</duration>
    <instrument id="P8-I1" />
    <voice>3</voice>
    <type>quarter</type>
    <staff>1</staff>
   </note>
   <note color="#000000" default-x="67" default-y="-67">
    <unpitched>
     <display-step>E</display-step>
     <display-octave>4</display-octave>
    </unpitched>
    <duration>768</duration>
    <instrument id="P8-I1" />
    <voice>3</voice>
    <type>half</type>
    <dot />
    <stem>down</stem>
    <staff>1</staff>
   </note>
  </measure>
  <!--============== Part: P8, Measure: 293 ==============-->
  <measure number="293" width="266">
   <note color="#000000" default-x="15" default-y="10">
    <unpitched>
     <display-step>A</display-step>
     <display-octave>4</display-octave>
    </unpitched>
    <duration>256</duration>
    <instrument id="P8-I1" />
    <voice>1</voice>
    <type>quarter</type>
    <stem>up</stem>
    <staff>1</staff>
   </note>
   <note default-x="67">
    <rest />
    <duration>256</duration>
    <instrument id="P8-I1" />
    <voice>1</voice>
    <type>quarter</type>
    <staff>1</staff>
   </note>
   <note default-x="120">
    <rest />
    <duration>256</duration>
    <instrument id="P8-I1" />
    <voice>1</voice>
    <type>quarter</type>
    <staff>1</staff>
   </note>
   <note color="#000000" default-x="214" default-y="10">
    <unpitched>
     <display-step>A</display-step>
     <display-octave>4</display-octave>
    </unpitched>
    <duration>256</duration>
    <instrument id="P8-I1" />
    <voice>1</voice>
    <type>quarter</type>
    <stem>up</stem>
    <staff>1</staff>
   </note>
  </measure>
  <!--============== Part: P8, Measure: 294 ==============-->
  <measure number="294" width="226">
   <note default-x="15">
    <rest />
    <duration>512</duration>
    <instrument id="P8-I1" />
    <voice>1</voice>
    <type>half</type>
    <staff>1</staff>
   </note>
   <note color="#000000" default-x="120">
    <unpitched>
     <display-step>F</display-step>
     <display-octave>4</display-octave>
    </unpitched>
    <duration>512</duration>
    <tie type="start" />
    <instrument id="P8-I1" />
    <voice>1</voice>
    <type>half</type>
    <stem>up</stem>
    <staff>1</staff>
    <notations>
     <tied type="start" orientation="over" />
    </notations>
   </note>
   <backup>
    <duration>512</duration>
   </backup>
   <note default-x="120">
    <rest />
    <duration>256</duration>
    <instrument id="P8-I1" />
    <voice>2</voice>
    <type>quarter</type>
    <staff>1</staff>
   </note>
   <note color="#000000" default-x="173" default-y="-67">
    <unpitched>
     <display-step>E</display-step>
     <display-octave>4</display-octave>
    </unpitched>
    <duration>256</duration>
    <tie type="start" />
    <instrument id="P8-I1" />
    <voice>2</voice>
    <type>quarter</type>
    <stem>down</stem>
    <staff>1</staff>
    <notations>
     <tied type="start" orientation="under" />
    </notations>
   </note>
  </measure>
  <!--============== Part: P8, Measure: 295 ==============-->
  <measure number="295" width="226">
   <note default-x="15">
    <rest />
    <duration>256</duration>
    <instrument id="P8-I1" />
    <voice>1</voice>
    <type>quarter</type>
    <staff>1</staff>
   </note>
   <note color="#000000" default-x="67" default-y="10">
    <unpitched>
     <display-step>A</display-step>
     <display-octave>4</display-octave>
    </unpitched>
    <duration>256</duration>
    <instrument id="P8-I1" />
    <voice>1</voice>
    <type>quarter</type>
    <stem>up</stem>
    <staff>1</staff>
   </note>
   <note color="#000000" default-x="120" default-y="10">
    <unpitched>
     <display-step>A</display-step>
     <display-octave>4</display-octave>
    </unpitched>
    <duration>256</duration>
    <instrument id="P8-I1" />
    <voice>1</voice>
    <type>quarter</type>
    <stem>up</stem>
    <staff>1</staff>
   </note>
   <note default-x="173">
    <rest />
    <duration>256</duration>
    <instrument id="P8-I1" />
    <voice>1</voice>
    <type>quarter</type>
    <staff>1</staff>
   </note>
   <backup>
    <duration>1024</duration>
   </backup>
   <note color="#000000" default-x="15">
    <unpitched>
     <display-step>E</display-step>
     <display-octave>4</display-octave>
    </unpitched>
    <duration>1024</duration>
    <tie type="stop" />
    <instrument id="P8-I1" />
    <voice>2</voice>
    <type>whole</type>
    <staff>1</staff>
    <notations>
     <tied type="stop" orientation="under" />
    </notations>
   </note>
  </measure>
 </part>
</score-partwise>
